<?xml version="1.0" encoding="utf-8"?>
<!-- Generator: Adobe Illustrator 16.0.4, SVG Export Plug-In . SVG Version: 6.00 Build 0)  -->
<!DOCTYPE svg PUBLIC "-//W3C//DTD SVG 1.1//EN" "http://www.w3.org/Graphics/SVG/1.1/DTD/svg11.dtd">
<svg version="1.1" xmlns="http://www.w3.org/2000/svg" xmlns:xlink="http://www.w3.org/1999/xlink" x="0px" y="0px" width="612px"
	 height="792px" viewBox="0 0 612 792" enable-background="new 0 0 612 792" xml:space="preserve">
<g id="background">
</g>
<g id="Layer_1">
	<path fill-rule="evenodd" clip-rule="evenodd" d="M162.057,451.747c22.02-51.134,115.871-159.19,144.653-176.81
		c35.627,24.149,72.081,127.155,79.172,147.361c2.64,7.146,9.98,35.115,18.309,68.999c-0.824-0.739-1.648-1.355-2.393-2.218
		C336.4,428.336,211.209,440.41,162.057,451.747z"/>
	<path fill-rule="evenodd" clip-rule="evenodd" d="M476.684,371.043c12.287,3.696,37.441,19.837,36.947,27.722
		c-0.33,8.872-91.296,59.758-95.503,62.838c-6.597-7.393-16.08-10.595-22.431-7.021l10.556,44.233
		c8.33-0.371,16.989-16.266,15.587-26.122c2.805-5.914,112.078-54.213,111.748-73.435c-0.411-18.48-44.286-43.616-49.152-46.327
		c0.247-4.929-4.783-13.43-18.227-14.417c-10.72-0.738-18.886,1.602-20.617,12.075s8.742,23.04,22.681,23.04
		C471.816,373.63,474.538,372.645,476.684,371.043z"/>
	<path fill-rule="evenodd" clip-rule="evenodd" d="M164.119,333.833c-10.804,0.862-66.884-4.066-77.028-4.435
		c-10.391-0.494-29.029-3.697-32.163,3.942c-3.135,7.886,0.33,13.799,5.113,23.411c4.947,9.363,65.811,79.347,70.759,83.291
		c-2.309,8.379,0.66,32.036,17.319,41.646l21.772-48.545c-6.763-11.09-24.412-13.061-34.474-3.943
		c-7.421-7.392-63.666-69.983-69.275-84.522c11.216,0.246,92.038,3.943,98.305,3.45c0.083-0.124,0.166-0.247,0.248-0.37
		c2.722,6.284,8.907,6.531,13.361,6.531c6.02,0,14.845-3.82,20.948-8.625c6.103-4.805-7.753-21.439-13.855-23.041
		C179.706,321.266,167.335,323.73,164.119,333.833z"/>
	<path fill-rule="evenodd" clip-rule="evenodd" fill="none" stroke="#000000" stroke-width="10" d="M306.628,275.061
		c-28.946,17.742-123.789,127.032-145.148,177.917c-21.36,50.886-48.08,116.312-59.627,168.554
		c-11.546,52.241-9.649,56.062,15.092,53.598c24.742-2.465,80.737-47.67,127.909-49.025c47.174-1.355,101.112,58.389,148.122,61.1
		c47.009,2.711,43.544-21.562,43.544-44.233s-43.626-200.588-50.719-220.672C378.707,402.216,342.256,299.211,306.628,275.061z"/>
	<path fill-rule="evenodd" clip-rule="evenodd" d="M181.355,309.437c-3.958-13.061-35.545-53.598-39.09-66.534
		c-3.547-12.937,3.133-22.055,11.214-22.794c22.515-2.095,18.638,49.901,30.103,49.039c11.464-0.863,15.917-22.424,15.917-29.448
		c0-7.023-10.969-39.551,4.371-41.4c26.638-3.203,4.866,62.346,18.309,62.592c13.442,0.247,19.875-34.622,31.504-34.129
		c11.629,0.492,7.835,22.917,6.515,27.846c-1.32,4.928-19.793,18.974-22.679,23.903c-2.887,4.927-10.639,15.155-17.072,28.585
		c-6.433,13.43,0.413,26.86,1.072,41.276c0.66,14.415-5.278,30.556-11.051,34.253c-5.773,3.695-4.702-11.089-3.959-22.425
		c0.742-11.335-7.423-14.046-13.855-23.656C186.221,326.933,183.995,318.185,181.355,309.437z"/>
	<path fill-rule="evenodd" clip-rule="evenodd" fill="none" stroke="#FFFFFF" d="M234.631,269.665
		c-9.567,10.227-25.319,34.129-29.194,47.066"/>
	<path fill-rule="evenodd" clip-rule="evenodd" fill="none" stroke="#FFFFFF" d="M191.6,278.091c2.474,12.814,3.217,33.267,0,41.276
		"/>
	<path fill-rule="evenodd" clip-rule="evenodd" fill="none" stroke="#FFFFFF" d="M196.099,272.457
		c4.618,11.212,3.876,36.348,0.659,42.754"/>
	<path fill-rule="evenodd" clip-rule="evenodd" fill="none" stroke="#FFFFFF" d="M216.444,301.512
		c-3.546,13.43-5.278,21.931-3.876,31.05"/>
	<path fill-rule="evenodd" clip-rule="evenodd" fill="none" stroke="#FFFFFF" d="M198.974,337.058
		c7.834,5.914,11.05,5.914,15.669,7.516"/>
	<path fill-rule="evenodd" clip-rule="evenodd" fill="none" stroke="#A7A9AC" stroke-width="2.8508" d="M262.094,209.143
		c8.906-2.094,12.454,8.133,11.381,16.141"/>
	<path fill-rule="evenodd" clip-rule="evenodd" fill="none" stroke="#A7A9AC" stroke-width="2.8508" d="M187.623,180.312
		c3.546-10.72,12.124-23.657,28.865-2.218"/>
	<path fill-rule="evenodd" clip-rule="evenodd" fill="none" stroke="#A7A9AC" stroke-width="2.8508" d="M131.378,199.039
		c-6.103-7.516-12.041-1.725-16.742,11.706"/>
	<path fill-rule="evenodd" clip-rule="evenodd" d="M383.903,242.164c-5.524,0.247-8.329,5.297-8,20.453
		c0.331,15.156,14.187,59.019,13.195,68.013c-0.988,8.995-23.999,21.809-23.999,53.967c0,7.516,1.567,18.481,9.731,18.359
		c8.165-0.124,12.289-3.45,12.866-9.98c0.577-6.531-1.566-24.15,5.442-29.941c2.062-1.602,10.062-3.45,28.783-2.833
		c11.463,0.37,15.339,11.336,20.204,7.64c4.867-3.697,31.834-19.467,33.154-29.325c1.319-9.856-10.638-8.255-15.753-22.178
		c-5.112-13.922-2.721-21.808-2.721-32.281c0.659-8.378,16.823-18.852,18.886-29.694c2.062-10.842-2.804-17.003-10.886-17.003
		c-14.845-0.124-30.348,41.522-36.205,49.777c-5.855,8.255-6.185-21.809-3.382-30.803c2.805-8.995,12.206-24.273-1.567-29.324
		c-13.771-5.052-14.762,12.32-15.009,20.823c-0.247,8.501-4.288,39.673-10.227,40.167
		C389.265,286.889,395.449,241.424,383.903,242.164z"/>
	<path fill-rule="evenodd" clip-rule="evenodd" fill="none" stroke="#A7A9AC" d="M456.396,282.947
		c-2.062,4.804-3.464,7.886-3.464,14.169"/>
	<path fill-rule="evenodd" clip-rule="evenodd" fill="none" stroke="#FFFFFF" d="M419.448,311.286
		c0,10.965,0.331,22.67,4.866,32.528"/>
	<path fill-rule="evenodd" clip-rule="evenodd" fill="none" stroke="#A7A9AC" stroke-width="2.8508" d="M360.564,198.67
		c4.865-7.393,12.535-10.966,18.474-4.189"/>
	<path fill-rule="evenodd" clip-rule="evenodd" fill="none" stroke="#A7A9AC" stroke-width="2.8508" d="M413.181,199.163
		c4.536-7.269,8.991-10.966,15.67-2.587"/>
	<path fill-rule="evenodd" clip-rule="evenodd" fill="none" stroke="#A7A9AC" stroke-width="2.8508" d="M491.527,234.278
		c1.073,7.885,2.97,7.269-0.907,12.567"/>
	<path fill-rule="evenodd" clip-rule="evenodd" fill="none" stroke="#A7A9AC" stroke-width="2.8508" d="M360.894,156.039
		c9.815-6.776,10.722-12.075,18.723-4.066"/>
	<g>
		<g>
			<defs>
				<path id="SVGID_1_" d="M269.187,401.949c-26.39-1.848-47.998,21.705-46.266,47.086c1.732,25.382,28.535,44.087,47.174,42.854
					c18.638-1.232,50.39-17.226,50.719-38.911C321.144,429.076,307.371,404.66,269.187,401.949z"/>
			</defs>
			<clipPath id="SVGID_2_">
				<use xlink:href="#SVGID_1_"  overflow="visible"/>
			</clipPath>
			<path clip-path="url(#SVGID_2_)" fill-rule="evenodd" clip-rule="evenodd" fill="#ED1C24" d="M328.153,432.402
				c0-62.468-33.978-113.231-75.874-113.231c-41.812,0-75.791,50.763-75.791,113.231c0,62.592,33.979,113.354,75.791,113.354
				C294.176,545.757,328.153,494.994,328.153,432.402L328.153,432.402z M324.36,432.402c0,59.388-32.329,107.687-72.081,107.687
				c-39.75,0-71.996-48.299-71.996-107.687c0-59.388,32.246-107.563,71.996-107.563C292.032,324.839,324.36,373.014,324.36,432.402z
				"/>
			<path clip-path="url(#SVGID_2_)" fill-rule="evenodd" clip-rule="evenodd" fill="#EE2526" d="M326.256,432.402
				c0-60.99-33.152-110.398-73.977-110.398c-40.822,0-73.893,49.409-73.893,110.398c0,60.99,33.071,110.521,73.893,110.521
				C293.104,542.923,326.256,493.393,326.256,432.402L326.256,432.402z M322.463,432.402c0,57.909-31.421,104.854-70.184,104.854
				c-38.677,0-70.099-46.944-70.099-104.854c0-57.786,31.422-104.73,70.099-104.73C291.042,327.672,322.463,374.616,322.463,432.402
				z"/>
			<path clip-path="url(#SVGID_2_)" fill-rule="evenodd" clip-rule="evenodd" fill="#EE2D28" d="M324.36,432.402
				c0-59.388-32.329-107.563-72.081-107.563c-39.75,0-71.996,48.175-71.996,107.563c0,59.388,32.246,107.687,71.996,107.687
				C292.032,540.089,324.36,491.79,324.36,432.402L324.36,432.402z M320.565,432.402c0,56.308-30.596,102.019-68.286,102.019
				c-37.688,0-68.203-45.711-68.203-102.019c0-56.185,30.515-101.896,68.203-101.896
				C289.97,330.507,320.565,376.218,320.565,432.402z"/>
			<path clip-path="url(#SVGID_2_)" fill-rule="evenodd" clip-rule="evenodd" fill="#EE352B" d="M322.463,432.402
				c0-57.786-31.421-104.73-70.184-104.73c-38.677,0-70.099,46.944-70.099,104.73c0,57.909,31.422,104.854,70.099,104.854
				C291.042,537.256,322.463,490.312,322.463,432.402L322.463,432.402z M318.67,432.402c0,54.706-29.772,99.186-66.391,99.186
				c-36.617,0-66.305-44.479-66.305-99.186s29.688-99.062,66.305-99.062C288.898,333.34,318.67,377.696,318.67,432.402z"/>
			<path clip-path="url(#SVGID_2_)" fill-rule="evenodd" clip-rule="evenodd" fill="#EF3B2E" d="M320.565,432.402
				c0-56.185-30.596-101.896-68.286-101.896c-37.688,0-68.203,45.711-68.203,101.896c0,56.308,30.515,102.019,68.203,102.019
				C289.97,534.421,320.565,488.71,320.565,432.402L320.565,432.402z M316.772,432.402c0,53.228-28.948,96.352-64.493,96.352
				c-35.544,0-64.409-43.124-64.409-96.352c0-53.104,28.865-96.228,64.409-96.228C287.825,336.175,316.772,379.298,316.772,432.402z
				"/>
			<path clip-path="url(#SVGID_2_)" fill-rule="evenodd" clip-rule="evenodd" fill="#EF4131" d="M318.67,432.402
				c0-54.706-29.772-99.062-66.391-99.062c-36.617,0-66.305,44.356-66.305,99.062s29.688,99.186,66.305,99.186
				C288.898,531.588,318.67,487.108,318.67,432.402L318.67,432.402z M314.876,432.402c0,51.626-28.04,93.518-62.597,93.518
				c-34.555,0-62.512-41.892-62.512-93.518c0-51.503,27.957-93.395,62.512-93.395C286.836,339.008,314.876,380.899,314.876,432.402z
				"/>
			<path clip-path="url(#SVGID_2_)" fill-rule="evenodd" clip-rule="evenodd" fill="#EF4634" d="M316.772,432.402
				c0-53.104-28.948-96.228-64.493-96.228c-35.544,0-64.409,43.123-64.409,96.228c0,53.228,28.865,96.352,64.409,96.352
				C287.825,528.754,316.772,485.63,316.772,432.402L316.772,432.402z M312.979,432.402c0,50.023-27.214,90.684-60.699,90.684
				c-33.482,0-60.615-40.66-60.615-90.684s27.133-90.561,60.615-90.561C285.764,341.842,312.979,382.379,312.979,432.402z"/>
			<path clip-path="url(#SVGID_2_)" fill-rule="evenodd" clip-rule="evenodd" fill="#F04C38" d="M314.876,432.402
				c0-51.503-28.04-93.395-62.597-93.395c-34.555,0-62.512,41.892-62.512,93.395c0,51.626,27.957,93.518,62.512,93.518
				C286.836,525.92,314.876,484.028,314.876,432.402L314.876,432.402z M311.083,432.402c0,48.422-26.39,87.85-58.804,87.85
				c-32.411,0-58.719-39.428-58.719-87.85c0-48.422,26.308-87.727,58.719-87.727C284.693,344.676,311.083,383.98,311.083,432.402z"
				/>
			<path clip-path="url(#SVGID_2_)" fill-rule="evenodd" clip-rule="evenodd" fill="#F0513C" d="M312.979,432.402
				c0-50.023-27.214-90.561-60.699-90.561c-33.482,0-60.615,40.537-60.615,90.561s27.133,90.684,60.615,90.684
				C285.764,523.086,312.979,482.426,312.979,432.402L312.979,432.402z M309.184,432.402c0,46.944-25.482,85.016-56.904,85.016
				c-31.338,0-56.822-38.071-56.822-85.016c0-46.82,25.484-84.893,56.822-84.893C283.702,347.51,309.184,385.583,309.184,432.402z"
				/>
			<path clip-path="url(#SVGID_2_)" fill-rule="evenodd" clip-rule="evenodd" fill="#F1563F" d="M311.083,432.402
				c0-48.422-26.39-87.727-58.804-87.727c-32.411,0-58.719,39.304-58.719,87.727c0,48.422,26.308,87.85,58.719,87.85
				C284.693,520.252,311.083,480.824,311.083,432.402L311.083,432.402z M307.289,432.402c0,45.342-24.66,82.183-55.01,82.183
				c-30.348,0-54.924-36.841-54.924-82.183c0-45.342,24.576-82.059,54.924-82.059C282.629,350.343,307.289,387.06,307.289,432.402z"
				/>
			<path clip-path="url(#SVGID_2_)" fill-rule="evenodd" clip-rule="evenodd" fill="#F15B44" d="M309.184,432.402
				c0-46.82-25.482-84.893-56.904-84.893c-31.338,0-56.822,38.073-56.822,84.893c0,46.944,25.484,85.016,56.822,85.016
				C283.702,517.418,309.184,479.347,309.184,432.402L309.184,432.402z M305.391,432.402c0,43.74-23.834,79.348-53.112,79.348
				c-29.276,0-53.028-35.607-53.028-79.348c0-43.74,23.751-79.225,53.028-79.225C281.557,353.178,305.391,388.663,305.391,432.402z"
				/>
			<path clip-path="url(#SVGID_2_)" fill-rule="evenodd" clip-rule="evenodd" fill="#F15F48" d="M307.289,432.402
				c0-45.342-24.66-82.059-55.01-82.059c-30.348,0-54.924,36.717-54.924,82.059c0,45.342,24.576,82.183,54.924,82.183
				C282.629,514.585,307.289,477.744,307.289,432.402L307.289,432.402z M303.495,432.402c0,42.262-22.926,76.514-51.215,76.514
				c-28.204,0-51.131-34.252-51.131-76.514c0-42.138,22.927-76.391,51.131-76.391C280.568,356.011,303.495,390.264,303.495,432.402z
				"/>
			<path clip-path="url(#SVGID_2_)" fill-rule="evenodd" clip-rule="evenodd" fill="#F2644C" d="M305.391,432.402
				c0-43.74-23.834-79.225-53.112-79.225c-29.276,0-53.028,35.485-53.028,79.225c0,43.74,23.751,79.348,53.028,79.348
				C281.557,511.75,305.391,476.143,305.391,432.402L305.391,432.402z M301.598,432.402c0,40.659-22.102,73.682-49.318,73.682
				c-27.215,0-49.235-33.022-49.235-73.682c0-40.537,22.021-73.558,49.235-73.558C279.496,358.845,301.598,391.866,301.598,432.402z
				"/>
			<path clip-path="url(#SVGID_2_)" fill-rule="evenodd" clip-rule="evenodd" fill="#F26A50" d="M303.495,432.402
				c0-42.138-22.926-76.391-51.215-76.391c-28.204,0-51.131,34.253-51.131,76.391c0,42.262,22.927,76.514,51.131,76.514
				C280.568,508.916,303.495,474.664,303.495,432.402L303.495,432.402z M299.701,432.402c0,39.058-21.277,70.846-47.422,70.846
				c-26.143,0-47.337-31.788-47.337-70.846c0-39.058,21.195-70.724,47.337-70.724C278.424,361.679,299.701,393.344,299.701,432.402z
				"/>
			<path clip-path="url(#SVGID_2_)" fill-rule="evenodd" clip-rule="evenodd" fill="#F36E55" d="M301.598,432.402
				c0-40.537-22.102-73.558-49.318-73.558c-27.215,0-49.235,33.021-49.235,73.558c0,40.659,22.021,73.682,49.235,73.682
				C279.496,506.084,301.598,473.062,301.598,432.402L301.598,432.402z M297.805,432.402c0,37.579-20.453,68.013-45.525,68.013
				c-25.071,0-45.44-30.434-45.44-68.013c0-37.457,20.369-67.89,45.44-67.89C277.352,364.512,297.805,394.945,297.805,432.402z"/>
			<path clip-path="url(#SVGID_2_)" fill-rule="evenodd" clip-rule="evenodd" fill="#F37359" d="M299.701,432.402
				c0-39.058-21.277-70.724-47.422-70.724c-26.143,0-47.337,31.666-47.337,70.724c0,39.058,21.195,70.846,47.337,70.846
				C278.424,503.248,299.701,471.46,299.701,432.402L299.701,432.402z M295.907,432.402c0,35.978-19.544,65.179-43.627,65.179
				c-24.081,0-43.543-29.201-43.543-65.179c0-35.854,19.462-65.056,43.543-65.056C276.362,367.346,295.907,396.548,295.907,432.402z
				"/>
			<path clip-path="url(#SVGID_2_)" fill-rule="evenodd" clip-rule="evenodd" fill="#F0765D" d="M297.805,432.402
				c0-37.457-20.453-67.89-45.525-67.89c-25.071,0-45.44,30.433-45.44,67.89c0,37.579,20.369,68.013,45.44,68.013
				C277.352,500.415,297.805,469.981,297.805,432.402L297.805,432.402z M294.01,432.402c0,34.376-18.721,62.346-41.731,62.346
				c-23.008,0-41.647-27.97-41.647-62.346c0-34.375,18.639-62.222,41.647-62.222C275.29,370.181,294.01,398.027,294.01,432.402z"/>
			<path clip-path="url(#SVGID_2_)" fill-rule="evenodd" clip-rule="evenodd" fill="#F07A60" d="M295.907,432.402
				c0-35.854-19.544-65.056-43.627-65.056c-24.081,0-43.543,29.202-43.543,65.056c0,35.978,19.462,65.179,43.543,65.179
				C276.362,497.581,295.907,468.38,295.907,432.402L295.907,432.402z M292.114,432.402c0,32.774-17.896,59.512-39.835,59.512
				c-21.937,0-39.75-26.737-39.75-59.512c0-32.773,17.813-59.388,39.75-59.388C274.218,373.014,292.114,399.629,292.114,432.402z"/>
			<path clip-path="url(#SVGID_2_)" fill-rule="evenodd" clip-rule="evenodd" fill="#F17E66" d="M294.01,432.402
				c0-34.375-18.721-62.222-41.731-62.222c-23.008,0-41.647,27.847-41.647,62.222c0,34.376,18.639,62.346,41.647,62.346
				C275.29,494.748,294.01,466.778,294.01,432.402L294.01,432.402z M290.217,432.402c0,31.296-16.99,56.678-37.938,56.678
				c-20.864,0-37.853-25.382-37.853-56.678c0-31.173,16.989-56.555,37.853-56.555C273.227,375.848,290.217,401.229,290.217,432.402z
				"/>
			<path clip-path="url(#SVGID_2_)" fill-rule="evenodd" clip-rule="evenodd" fill="#F18169" d="M292.114,432.402
				c0-32.773-17.896-59.388-39.835-59.388c-21.937,0-39.75,26.615-39.75,59.388c0,32.774,17.813,59.512,39.75,59.512
				C274.218,491.914,292.114,465.177,292.114,432.402L292.114,432.402z M288.32,432.402c0,29.694-16.165,53.844-36.041,53.844
				c-19.875,0-35.956-24.149-35.956-53.844c0-29.693,16.082-53.72,35.956-53.72C272.156,378.682,288.32,402.709,288.32,432.402z"/>
			<path clip-path="url(#SVGID_2_)" fill-rule="evenodd" clip-rule="evenodd" fill="#F1856D" d="M290.217,432.402
				c0-31.173-16.99-56.555-37.938-56.555c-20.864,0-37.853,25.382-37.853,56.555c0,31.296,16.989,56.678,37.853,56.678
				C273.227,489.08,290.217,463.698,290.217,432.402L290.217,432.402z M286.423,432.402c0,28.092-15.339,51.01-34.144,51.01
				c-18.802,0-34.06-22.918-34.06-51.01s15.257-50.887,34.06-50.887C271.083,381.516,286.423,404.311,286.423,432.402z"/>
			<path clip-path="url(#SVGID_2_)" fill-rule="evenodd" clip-rule="evenodd" fill="#F28972" d="M288.32,432.402
				c0-29.693-16.165-53.72-36.041-53.72c-19.875,0-35.956,24.027-35.956,53.72c0,29.694,16.082,53.844,35.956,53.844
				C272.156,486.246,288.32,462.097,288.32,432.402L288.32,432.402z M284.527,432.402c0,26.613-14.433,48.175-32.248,48.175
				c-17.731,0-32.163-21.562-32.163-48.175c0-26.49,14.432-48.052,32.163-48.052C270.094,384.35,284.527,405.912,284.527,432.402z"
				/>
			<path clip-path="url(#SVGID_2_)" fill-rule="evenodd" clip-rule="evenodd" fill="#F28D76" d="M286.423,432.402
				c0-28.092-15.339-50.887-34.144-50.887c-18.802,0-34.06,22.795-34.06,50.887s15.257,51.01,34.06,51.01
				C271.083,483.412,286.423,460.494,286.423,432.402L286.423,432.402z M282.629,432.402c0,25.012-13.607,45.342-30.35,45.342
				c-16.823,0-30.265-20.33-30.265-45.342c0-24.889,13.442-45.219,30.265-45.219C269.022,387.183,282.629,407.514,282.629,432.402z"
				/>
			<path clip-path="url(#SVGID_2_)" fill-rule="evenodd" clip-rule="evenodd" fill="#F2907A" d="M284.527,432.402
				c0-26.49-14.433-48.052-32.248-48.052c-17.731,0-32.163,21.562-32.163,48.052c0,26.613,14.432,48.175,32.163,48.175
				C270.094,480.577,284.527,459.016,284.527,432.402L284.527,432.402z M280.732,432.402c0,23.41-12.782,42.508-28.453,42.508
				c-15.751,0-28.369-19.098-28.369-42.508s12.617-42.384,28.369-42.384C267.95,390.018,280.732,408.992,280.732,432.402z"/>
			<path clip-path="url(#SVGID_2_)" fill-rule="evenodd" clip-rule="evenodd" fill="#F39480" d="M282.629,432.402
				c0-24.889-13.607-45.219-30.35-45.219c-16.823,0-30.265,20.331-30.265,45.219c0,25.012,13.442,45.342,30.265,45.342
				C269.022,477.744,282.629,457.414,282.629,432.402L282.629,432.402z M278.835,432.402c0,21.932-11.958,39.675-26.556,39.675
				c-14.679,0-26.473-17.743-26.473-39.675c0-21.809,11.794-39.551,26.473-39.551C266.878,392.851,278.835,410.594,278.835,432.402z
				"/>
			<path clip-path="url(#SVGID_2_)" fill-rule="evenodd" clip-rule="evenodd" fill="#F39884" d="M280.732,432.402
				c0-23.41-12.782-42.384-28.453-42.384c-15.751,0-28.369,18.974-28.369,42.384s12.617,42.508,28.369,42.508
				C267.95,474.91,280.732,455.812,280.732,432.402L280.732,432.402z M276.939,432.402c0,20.33-11.051,36.84-24.66,36.84
				c-13.689,0-24.575-16.51-24.575-36.84c0-20.207,10.886-36.717,24.575-36.717C265.888,395.685,276.939,412.195,276.939,432.402z"
				/>
			<path clip-path="url(#SVGID_2_)" fill-rule="evenodd" clip-rule="evenodd" fill="#F39C88" d="M278.835,432.402
				c0-21.809-11.958-39.551-26.556-39.551c-14.679,0-26.473,17.743-26.473,39.551c0,21.932,11.794,39.675,26.473,39.675
				C266.878,472.077,278.835,454.334,278.835,432.402L278.835,432.402z M275.042,432.402c0,18.729-10.226,34.007-22.763,34.007
				c-12.616,0-22.679-15.278-22.679-34.007c0-18.728,10.062-33.884,22.679-33.884C264.816,398.519,275.042,413.675,275.042,432.402z
				"/>
			<path clip-path="url(#SVGID_2_)" fill-rule="evenodd" clip-rule="evenodd" fill="#F4A08E" d="M276.939,432.402
				c0-20.207-11.051-36.717-24.66-36.717c-13.689,0-24.575,16.51-24.575,36.717c0,20.33,10.886,36.84,24.575,36.84
				C265.888,469.242,276.939,452.732,276.939,432.402L276.939,432.402z M273.146,432.402c0,17.126-9.402,31.172-20.866,31.172
				c-11.544,0-20.781-14.046-20.781-31.172c0-17.127,9.237-31.05,20.781-31.05C263.744,401.353,273.146,415.275,273.146,432.402z"/>
			<path clip-path="url(#SVGID_2_)" fill-rule="evenodd" clip-rule="evenodd" fill="#F4A393" d="M275.042,432.402
				c0-18.728-10.226-33.884-22.763-33.884c-12.616,0-22.679,15.156-22.679,33.884c0,18.729,10.062,34.007,22.679,34.007
				C264.816,466.409,275.042,451.131,275.042,432.402L275.042,432.402z M271.248,432.402c0,15.648-8.494,28.339-18.969,28.339
				c-10.473,0-18.885-12.69-18.885-28.339c0-15.525,8.412-28.216,18.885-28.216C262.754,404.187,271.248,416.877,271.248,432.402z"
				/>
			<path clip-path="url(#SVGID_2_)" fill-rule="evenodd" clip-rule="evenodd" fill="#F5A798" d="M273.146,432.402
				c0-17.127-9.402-31.05-20.866-31.05c-11.544,0-20.781,13.923-20.781,31.05c0,17.126,9.237,31.172,20.781,31.172
				C263.744,463.574,273.146,449.528,273.146,432.402L273.146,432.402z M269.352,432.402c0,14.046-7.671,25.504-17.073,25.504
				c-9.483,0-16.988-11.458-16.988-25.504s7.505-25.381,16.988-25.381C261.681,407.021,269.352,418.356,269.352,432.402z"/>
			<path clip-path="url(#SVGID_2_)" fill-rule="evenodd" clip-rule="evenodd" fill="#F5AB9C" d="M271.248,432.402
				c0-15.525-8.494-28.216-18.969-28.216c-10.473,0-18.885,12.69-18.885,28.216c0,15.648,8.412,28.339,18.885,28.339
				C262.754,460.741,271.248,448.051,271.248,432.402L271.248,432.402z M267.455,432.402c0,12.444-6.845,22.671-15.176,22.671
				c-8.411,0-15.174-10.227-15.174-22.671c0-12.443,6.763-22.548,15.174-22.548C260.61,409.854,267.455,419.959,267.455,432.402z"/>
			<path clip-path="url(#SVGID_2_)" fill-rule="evenodd" clip-rule="evenodd" fill="#F5B1A4" d="M269.352,432.402
				c0-14.046-7.671-25.381-17.073-25.381c-9.483,0-16.988,11.335-16.988,25.381s7.505,25.504,16.988,25.504
				C261.681,457.906,269.352,446.448,269.352,432.402L269.352,432.402z M265.558,432.402c0,10.966-5.938,19.837-13.279,19.837
				c-7.339,0-13.277-8.871-13.277-19.837c0-10.842,5.938-19.714,13.277-19.714C259.621,412.688,265.558,421.561,265.558,432.402z"/>
			<path clip-path="url(#SVGID_2_)" fill-rule="evenodd" clip-rule="evenodd" fill="#F3B3A7" d="M267.455,432.402
				c0-12.443-6.845-22.548-15.176-22.548c-8.411,0-15.174,10.104-15.174,22.548c0,12.444,6.763,22.671,15.174,22.671
				C260.61,455.073,267.455,444.847,267.455,432.402L267.455,432.402z M263.661,432.402c0,9.363-5.113,17.003-11.381,17.003
				c-6.349,0-11.379-7.64-11.379-17.003c0-9.24,5.03-16.88,11.379-16.88C258.548,415.522,263.661,423.162,263.661,432.402z"/>
			<path clip-path="url(#SVGID_2_)" fill-rule="evenodd" clip-rule="evenodd" fill="#F3B7AC" d="M265.558,432.402
				c0-10.842-5.938-19.714-13.279-19.714c-7.339,0-13.277,8.872-13.277,19.714c0,10.966,5.938,19.837,13.277,19.837
				C259.621,452.239,265.558,443.368,265.558,432.402L265.558,432.402z M261.765,432.402c0,7.762-4.289,14.169-9.485,14.169
				c-5.277,0-9.483-6.407-9.483-14.169c0-7.763,4.206-14.046,9.483-14.046C257.476,418.356,261.765,424.64,261.765,432.402z"/>
			<path clip-path="url(#SVGID_2_)" fill-rule="evenodd" clip-rule="evenodd" fill="#F3BBB1" d="M263.661,432.402
				c0-9.24-5.113-16.88-11.381-16.88c-6.349,0-11.379,7.64-11.379,16.88c0,9.363,5.03,17.003,11.379,17.003
				C258.548,449.405,263.661,441.766,263.661,432.402L263.661,432.402z M259.868,432.402c0,6.283-3.464,11.336-7.588,11.336
				c-4.206,0-7.587-5.053-7.587-11.336c0-6.16,3.381-11.213,7.587-11.213C256.403,421.189,259.868,426.242,259.868,432.402z"/>
			<path clip-path="url(#SVGID_2_)" fill-rule="evenodd" clip-rule="evenodd" fill="#F4C1B9" d="M261.765,432.402
				c0-7.763-4.289-14.046-9.485-14.046c-5.277,0-9.483,6.283-9.483,14.046c0,7.762,4.206,14.169,9.483,14.169
				C257.476,446.571,261.765,440.164,261.765,432.402L261.765,432.402z M257.971,432.402c0,4.682-2.557,8.501-5.692,8.501
				c-3.133,0-5.689-3.819-5.689-8.501s2.556-8.379,5.689-8.379C255.414,424.023,257.971,427.721,257.971,432.402z"/>
			<path clip-path="url(#SVGID_2_)" fill-rule="evenodd" clip-rule="evenodd" fill="#F4C5BE" d="M259.868,432.402
				c0-6.16-3.464-11.213-7.588-11.213c-4.206,0-7.587,5.053-7.587,11.213c0,6.283,3.381,11.336,7.587,11.336
				C256.403,443.738,259.868,438.686,259.868,432.402L259.868,432.402z M256.073,432.402c0,3.08-1.731,5.668-3.793,5.668
				c-2.143,0-3.792-2.588-3.792-5.668c0-3.204,1.649-5.545,3.792-5.545C254.342,426.857,256.073,429.198,256.073,432.402z"/>
			<path clip-path="url(#SVGID_2_)" fill-rule="evenodd" clip-rule="evenodd" fill="#F4C9C3" d="M257.971,432.402
				c0-4.682-2.557-8.379-5.692-8.379c-3.133,0-5.689,3.697-5.689,8.379s2.556,8.501,5.689,8.501
				C255.414,440.903,257.971,437.084,257.971,432.402z"/>
			<path clip-path="url(#SVGID_2_)" fill-rule="evenodd" clip-rule="evenodd" fill="#F4CDCA" d="M256.073,432.402
				c0-3.204-1.731-5.545-3.793-5.545c-2.143,0-3.792,2.341-3.792,5.545c0,3.08,1.649,5.668,3.792,5.668
				C254.342,438.07,256.073,435.482,256.073,432.402z"/>
			<path clip-path="url(#SVGID_2_)" fill-rule="evenodd" clip-rule="evenodd" fill="#F5D1D0" d="M254.177,432.402
				c0-1.602-0.906-2.834-1.897-2.834c-1.071,0-1.896,1.232-1.896,2.834c0,1.479,0.825,2.834,1.896,2.834
				C253.271,435.236,254.177,433.881,254.177,432.402z"/>
			
				<use xlink:href="#SVGID_1_"  overflow="visible" fill-rule="evenodd" clip-rule="evenodd" fill="none" stroke="#000000" stroke-width="9"/>
		</g>
	</g>
</g>
</svg>