<?xml version="1.0" encoding="utf-8"?>
<!-- Generator: Adobe Illustrator 16.0.4, SVG Export Plug-In . SVG Version: 6.00 Build 0)  -->
<!DOCTYPE svg PUBLIC "-//W3C//DTD SVG 1.1//EN" "http://www.w3.org/Graphics/SVG/1.1/DTD/svg11.dtd">
<svg version="1.1" id="Layer_1" xmlns="http://www.w3.org/2000/svg" xmlns:xlink="http://www.w3.org/1999/xlink" x="0px" y="0px"
	 width="612px" height="792px" viewBox="0 0 612 792" enable-background="new 0 0 612 792" xml:space="preserve">
<g>
	<g>
		<g>
			<path stroke="#000000" stroke-width="0.3664" d="M345.221,377.733c-0.085-1.443,0.209-0.893,0.844-2.382
				c0.274-0.639,1.308-0.7,1.635-0.408c3.368,2.598,3.612,4.236,2.718,8.329c-0.243,1.156-2.101,1.266-2.961,0.799
				c-1.17-0.552-1.103-1.226-1.796-2.425L345.221,377.733z"/>
		</g>
	</g>
	<path d="M360.751,355.653c3.826,1.493-3.91,14.254-4.968,17.74c-1.299,3.534-6.885,6.14-8.043,4.275
		c-1.05-1.689-1.729-2.711-3.257-3.215c-1.057-0.193-1.284-1.286-2.705-1.26c-1.8,0.032-1.413-4.3-3.663-5.222
		c-0.749-0.308-2.071-0.04-2.378,0.71c-1.537,2.604-0.593,6.11,2.265,7.798c-4.06-2.396-9.46-2.049-13.839,0.03
		c-2.341,1.111-2.408,4.28,0.581,4.557c3.689-1.224,5.917-0.898,8.171-0.726c-2.994-0.229-7.363,3.215-7.538,3.756
		c-0.485,1.503-1.435,1.395,0.011,3.861c0.887,1.517,2.64,0.374,3.558-0.063c1.737-1.359,4.213-2.856,7.206-2.828
		c-1.5-0.014-2.561,2.281-3.477,3.978c-0.815,2.178-0.52,4.888,0.982,6.094c0.631,0.627,1.308,0.614,2.42-0.114
		c1.305-1.02,0.517-2.816,0.982-4.551c0.483-1.804,1.568-1.878,2.051-1.977c0.968-0.194,2.687,0.23,5.223-0.729
		c2.703-1.021-0.376,0.554,2.33-1.002c1.546-1.067,2.499-3.722,2.068-5.955c-0.563-2.908,7.592,0.481,9.34-9.588
		c0.127-0.729,1.598-1.837,1.791-2.128c1.112-0.728,1.425-0.396,2.928-0.448L360.751,355.653z"/>
</g>
<g>
	<g>
		<path fill="none" stroke="#FFFFFF" stroke-width="0.4164" stroke-linecap="square" d="M346.311,332.688
			c3.225,0.675,16.025,6.76,30.55,15.122c9.905,5.701,16.375,14.19,19.099,19.721c7.304,14.837,7.106,30.288,2.347,33.188
			c-4.352,1.317-3.678-10.264-5.902-14.633c-1.3-2.551-4.27-8.356-9.491-7.956c-9.07,0.695-19.332,21.173-21.973,22.304
			c-2.331,0.986-3.752,1.058-3.054-2.34c3.229-7.711,9.155-19.886,9.147-29.74C367.027,352.539,348.888,334.603,346.311,332.688z"/>
	</g>
	<g>
		<path fill="none" stroke="#FDFDFD" stroke-width="0.4173" stroke-linecap="square" d="M346.296,332.683
			c3.229,0.677,16.088,6.738,30.638,15.13c9.864,5.685,16.352,14.17,19.079,19.712c7.318,14.869,7.074,30.29,2.304,33.195
			c-4.361,1.322-3.687-10.25-5.919-14.611c-1.305-2.55-4.264-8.307-9.462-7.91c-9.034,0.692-19.336,21.103-21.986,22.237
			c-2.343,0.994-3.784,1.059-3.084-2.356c3.245-7.744,9.125-19.846,9.12-29.722C366.976,352.507,348.879,334.6,346.296,332.683z"/>
		<path fill="none" stroke="#FCFCFC" stroke-width="0.4183" stroke-linecap="square" d="M346.28,332.677
			c3.237,0.678,16.151,6.718,30.724,15.139c9.828,5.669,16.328,14.15,19.063,19.704c7.335,14.903,7.041,30.291,2.261,33.206
			c-4.371,1.321-3.698-10.238-5.936-14.594c-1.311-2.547-4.258-8.259-9.434-7.861c-8.998,0.692-19.336,21.032-22,22.172
			c-2.354,0.996-3.816,1.052-3.112-2.374c3.259-7.782,9.093-19.81,9.088-29.71C366.926,352.475,348.868,334.599,346.28,332.677z"/>
		<path fill="none" stroke="#FAFBFB" stroke-width="0.4192" stroke-linecap="square" d="M346.267,332.672
			c3.243,0.68,16.211,6.697,30.811,15.148c9.789,5.653,16.303,14.129,19.043,19.696c7.353,14.933,7.011,30.29,2.22,33.211
			c-4.382,1.325-3.707-10.225-5.95-14.573c-1.317-2.546-4.255-8.21-9.405-7.815c-8.965,0.689-19.343,20.963-22.017,22.108
			c-2.364,1-3.849,1.051-3.141-2.396c3.273-7.813,9.062-19.771,9.057-29.69C366.877,352.443,348.86,334.598,346.267,332.672z"/>
		<path fill="none" stroke="#F9F9FA" stroke-width="0.4201" stroke-linecap="square" d="M346.252,332.666
			c3.251,0.681,16.274,6.677,30.896,15.157c9.75,5.638,16.281,14.109,19.026,19.687c7.367,14.967,6.978,30.294,2.177,33.223
			c-4.392,1.325-3.719-10.215-5.969-14.556c-1.322-2.545-4.248-8.16-9.375-7.764c-8.929,0.685-19.344,20.89-22.03,22.041
			c-2.377,1.005-3.88,1.046-3.169-2.415c3.288-7.847,9.03-19.733,9.025-29.675C366.825,352.411,348.85,334.597,346.252,332.666z"/>
		<path fill="none" stroke="#F8F8F9" stroke-width="0.421" stroke-linecap="square" d="M346.236,332.661
			c3.259,0.681,16.338,6.655,30.986,15.167c9.709,5.62,16.254,14.088,19.006,19.678c7.385,15,6.945,30.295,2.134,33.227
			c-4.4,1.331-3.729-10.195-5.984-14.531c-1.326-2.544-4.242-8.112-9.347-7.718c-8.893,0.684-19.348,20.819-22.045,21.974
			c-2.386,1.011-3.912,1.044-3.196-2.431c3.302-7.885,8.998-19.696,8.992-29.659C366.774,352.379,348.842,334.596,346.236,332.661z"
			/>
		<path fill="none" stroke="#F7F7F8" stroke-width="0.4219" stroke-linecap="square" d="M346.222,332.656
			c3.267,0.682,16.399,6.633,31.071,15.176c9.672,5.604,16.232,14.067,18.991,19.667c7.398,15.034,6.911,30.299,2.09,33.238
			c-4.411,1.332-3.737-10.185-6.001-14.514c-1.332-2.544-4.237-8.062-9.318-7.672c-8.855,0.683-19.349,20.751-22.061,21.913
			c-2.396,1.013-3.941,1.038-3.225-2.452c3.317-7.919,8.969-19.659,8.964-29.643C366.726,352.346,348.833,334.594,346.222,332.656z"
			/>
		<path fill="none" stroke="#F6F6F7" stroke-width="0.4228" stroke-linecap="square" d="M346.206,332.65
			c3.274,0.686,16.464,6.613,31.16,15.185c9.633,5.588,16.207,14.046,18.972,19.66c7.416,15.066,6.879,30.3,2.046,33.244
			c-4.42,1.336-3.748-10.17-6.017-14.493c-1.336-2.541-4.231-8.013-9.287-7.624c-8.821,0.681-19.353,20.681-22.077,21.847
			c-2.406,1.019-3.974,1.035-3.253-2.47c3.333-7.954,8.938-19.622,8.933-29.627C366.675,352.314,348.824,334.593,346.206,332.65z"/>
		<path fill="none" stroke="#F5F6F6" stroke-width="0.4237" stroke-linecap="square" d="M346.192,332.644
			c3.281,0.686,16.524,6.592,31.244,15.195c9.596,5.571,16.187,14.023,18.956,19.651c7.431,15.096,6.845,30.301,2.004,33.253
			c-4.431,1.34-3.758-10.159-6.033-14.475c-1.342-2.539-4.227-7.964-9.261-7.576c-8.785,0.678-19.354,20.611-22.09,21.782
			c-2.417,1.022-4.005,1.032-3.281-2.488c3.347-7.989,8.906-19.583,8.901-29.612C366.623,352.284,348.814,334.592,346.192,332.644z"
			/>
		<path fill="none" stroke="#F4F5F5" stroke-width="0.4246" stroke-linecap="square" d="M346.179,332.638
			c3.286,0.689,16.586,6.572,31.331,15.206c9.555,5.555,16.161,14.004,18.938,19.641c7.446,15.131,6.812,30.305,1.96,33.262
			c-4.44,1.343-3.768-10.144-6.05-14.453c-1.348-2.539-4.22-7.916-9.232-7.529c-8.748,0.677-19.355,20.539-22.103,21.716
			c-2.427,1.028-4.038,1.029-3.311-2.507c3.361-8.024,8.875-19.544,8.871-29.595C366.572,352.251,348.807,334.59,346.179,332.638z"
			/>
		<path fill="none" stroke="#F3F4F4" stroke-width="0.4255" stroke-linecap="square" d="M346.163,332.632
			c3.295,0.69,16.65,6.551,31.418,15.215c9.517,5.54,16.137,13.984,18.918,19.634c7.465,15.162,6.781,30.302,1.918,33.27
			c-4.447,1.344-3.774-10.133-6.064-14.436c-1.352-2.537-4.216-7.867-9.202-7.48c-8.715,0.674-19.36,20.468-22.119,21.651
			c-2.438,1.031-4.069,1.024-3.339-2.526c3.376-8.059,8.846-19.507,8.84-29.578C366.523,352.219,348.797,334.588,346.163,332.632z"
			/>
		<path fill="none" stroke="#F3F3F4" stroke-width="0.4265" stroke-linecap="square" d="M346.148,332.627
			c3.303,0.691,16.713,6.529,31.505,15.222c9.478,5.524,16.113,13.963,18.902,19.626c7.479,15.195,6.747,30.306,1.873,33.275
			c-4.458,1.35-3.786-10.115-6.081-14.412c-1.357-2.534-4.21-7.817-9.176-7.434c-8.675,0.671-19.36,20.397-22.133,21.586
			c-2.448,1.037-4.101,1.023-3.367-2.545c3.392-8.095,8.815-19.472,8.81-29.563C366.473,352.187,348.788,334.587,346.148,332.627z"
			/>
		<path fill="none" stroke="#F2F2F3" stroke-width="0.4274" stroke-linecap="square" d="M346.134,332.622
			c3.309,0.693,16.775,6.508,31.593,15.232c9.439,5.506,16.09,13.942,18.883,19.617c7.495,15.226,6.715,30.308,1.831,33.286
			c-4.469,1.35-3.796-10.104-6.098-14.395c-1.363-2.533-4.204-7.769-9.146-7.386c-8.642,0.669-19.365,20.328-22.148,21.519
			c-2.459,1.04-4.132,1.021-3.396-2.563c3.406-8.128,8.782-19.432,8.777-29.545C366.423,352.156,348.778,334.584,346.134,332.622z"
			/>
		<path fill="none" stroke="#F1F1F2" stroke-width="0.4283" stroke-linecap="square" d="M346.12,332.616
			c3.313,0.695,16.835,6.488,31.679,15.241c9.4,5.492,16.066,13.923,18.864,19.61c7.511,15.258,6.683,30.307,1.787,33.291
			c-4.476,1.354-3.805-10.089-6.112-14.373c-1.368-2.531-4.199-7.719-9.118-7.337c-8.604,0.667-19.366,20.253-22.162,21.454
			c-2.47,1.047-4.164,1.017-3.425-2.582c3.422-8.163,8.753-19.395,8.747-29.531C366.372,352.123,348.771,334.584,346.12,332.616z"/>
		<path fill="none" stroke="#F0F1F1" stroke-width="0.4292" stroke-linecap="square" d="M346.105,332.61
			c3.321,0.696,16.899,6.467,31.765,15.251c9.36,5.475,16.042,13.901,18.848,19.6c7.527,15.292,6.65,30.311,1.744,33.302
			c-4.486,1.354-3.815-10.079-6.129-14.356c-1.374-2.529-4.194-7.67-9.088-7.289c-8.57,0.666-19.369,20.187-22.178,21.39
			c-2.48,1.049-4.195,1.012-3.454-2.602c3.435-8.198,8.722-19.357,8.718-29.515C366.321,352.091,348.761,334.582,346.105,332.61z"/>
		<path fill="none" stroke="#EFF0F0" stroke-width="0.4301" stroke-linecap="square" d="M346.091,332.605
			c3.328,0.696,16.961,6.446,31.852,15.26c9.323,5.458,16.019,13.88,18.828,19.592c7.545,15.324,6.617,30.31,1.703,33.307
			c-4.497,1.358-3.826-10.062-6.146-14.333c-1.38-2.528-4.188-7.622-9.06-7.243c-8.534,0.664-19.374,20.115-22.192,21.323
			c-2.49,1.055-4.227,1.01-3.481-2.618c3.449-8.233,8.69-19.322,8.686-29.499C366.272,352.06,348.752,334.582,346.091,332.605z"/>
		<path fill="none" stroke="#EEEFF0" stroke-width="0.431" stroke-linecap="square" d="M346.075,332.599
			c3.337,0.699,17.024,6.425,31.94,15.27c9.283,5.442,15.993,13.859,18.81,19.583c7.561,15.355,6.585,30.314,1.659,33.319
			c-4.506,1.358-3.834-10.052-6.161-14.317c-1.385-2.526-4.184-7.574-9.031-7.195c-8.498,0.662-19.376,20.047-22.207,21.259
			c-2.502,1.059-4.258,1.006-3.509-2.638c3.463-8.268,8.66-19.283,8.654-29.481C366.222,352.027,348.742,334.58,346.075,332.599z"/>
		<path fill="none" stroke="#EEEEEF" stroke-width="0.4319" stroke-linecap="square" d="M346.06,332.594
			c3.345,0.7,17.089,6.404,32.026,15.279c9.246,5.426,15.972,13.838,18.794,19.573c7.576,15.389,6.552,30.316,1.616,33.325
			c-4.516,1.365-3.845-10.038-6.178-14.294c-1.391-2.524-4.179-7.524-9.002-7.148c-8.463,0.66-19.379,19.975-22.223,21.193
			c-2.511,1.063-4.29,1.003-3.537-2.654c3.478-8.304,8.628-19.245,8.623-29.469C366.172,351.996,348.733,334.578,346.06,332.594z"/>
		<path fill="none" stroke="#EDEDEE" stroke-width="0.4328" stroke-linecap="square" d="M346.047,332.589
			c3.35,0.702,17.148,6.382,32.112,15.288c9.205,5.409,15.945,13.818,18.774,19.565c7.593,15.421,6.52,30.316,1.572,33.331
			c-4.524,1.369-3.854-10.02-6.192-14.274c-1.395-2.522-4.174-7.473-8.975-7.1c-8.427,0.658-19.381,19.905-22.235,21.127
			c-2.523,1.068-4.322,1-3.566-2.675c3.492-8.338,8.598-19.207,8.593-29.449C366.119,351.963,348.726,334.575,346.047,332.589z"/>
		<path fill="none" stroke="#ECEDED" stroke-width="0.4337" stroke-linecap="square" d="M346.031,332.582
			c3.358,0.704,17.212,6.362,32.2,15.297c9.168,5.395,15.923,13.797,18.757,19.556c7.607,15.454,6.487,30.319,1.529,33.343
			c-4.534,1.371-3.863-10.01-6.209-14.257c-1.4-2.521-4.168-7.426-8.945-7.052c-8.39,0.656-19.384,19.835-22.25,21.064
			c-2.533,1.07-4.354,0.993-3.595-2.696c3.507-8.371,8.565-19.169,8.561-29.434C366.071,351.931,348.715,334.576,346.031,332.582z"
			/>
		<path fill="none" stroke="#EBECED" stroke-width="0.4347" stroke-linecap="square" d="M346.016,332.577
			c3.365,0.705,17.276,6.341,32.287,15.307c9.129,5.377,15.899,13.775,18.74,19.547c7.623,15.485,6.454,30.322,1.486,33.351
			c-4.545,1.373-3.874-9.996-6.227-14.238c-1.405-2.519-4.161-7.375-8.915-7.005c-8.355,0.654-19.387,19.766-22.266,20.999
			c-2.543,1.078-4.386,0.993-3.623-2.712c3.521-8.409,8.535-19.134,8.529-29.419C366.02,351.9,348.707,334.574,346.016,332.577z"/>
		<path fill="none" stroke="#EAEBEC" stroke-width="0.4356" stroke-linecap="square" d="M346.002,332.571
			c3.372,0.706,17.337,6.32,32.373,15.316c9.09,5.36,15.875,13.755,18.723,19.538c7.64,15.52,6.42,30.326,1.442,33.356
			c-4.553,1.38-3.883-9.979-6.243-14.212c-1.408-2.517-4.156-7.329-8.888-6.957c-8.318,0.65-19.387,19.693-22.278,20.931
			c-2.554,1.08-4.416,0.99-3.652-2.73c3.537-8.443,8.506-19.094,8.499-29.403C365.969,351.867,348.698,334.572,346.002,332.571z"/>
		<path fill="none" stroke="#EAEAEB" stroke-width="0.4365" stroke-linecap="square" d="M345.986,332.565
			c3.38,0.708,17.4,6.299,32.461,15.326c9.051,5.344,15.85,13.734,18.703,19.53c7.655,15.551,6.389,30.325,1.4,33.365
			c-4.562,1.38-3.893-9.968-6.257-14.194c-1.418-2.518-4.152-7.28-8.859-6.911c-8.283,0.65-19.393,19.624-22.295,20.867
			c-2.565,1.084-4.448,0.988-3.68-2.748c3.552-8.479,8.474-19.058,8.469-29.388C365.92,351.835,348.688,334.571,345.986,332.565z"/>
		<path fill="none" stroke="#E9E9EA" stroke-width="0.4374" stroke-linecap="square" d="M345.974,332.559
			c3.385,0.71,17.462,6.279,32.547,15.334c9.011,5.33,15.827,13.715,18.686,19.523c7.67,15.583,6.355,30.326,1.356,33.372
			c-4.573,1.383-3.904-9.954-6.274-14.175c-1.421-2.516-4.147-7.229-8.83-6.861c-8.247,0.647-19.394,19.553-22.309,20.802
			c-2.575,1.089-4.479,0.983-3.709-2.769c3.566-8.513,8.442-19.021,8.438-29.372C365.87,351.803,348.681,334.57,345.974,332.559z"/>
		<path fill="none" stroke="#E8E9E9" stroke-width="0.4383" stroke-linecap="square" d="M345.958,332.554
			c3.393,0.71,17.523,6.258,32.634,15.343c8.976,5.313,15.804,13.693,18.668,19.514c7.687,15.617,6.322,30.329,1.314,33.383
			c-4.581,1.383-3.914-9.944-6.291-14.157c-1.427-2.514-4.141-7.181-8.802-6.816c-8.211,0.646-19.397,19.483-22.324,20.738
			c-2.584,1.094-4.511,0.979-3.735-2.788c3.581-8.548,8.411-18.982,8.406-29.354C365.819,351.771,348.67,334.569,345.958,332.554z"
			/>
		<path fill="none" stroke="#E7E8E9" stroke-width="0.4392" stroke-linecap="square" d="M345.944,332.549
			c3.398,0.711,17.585,6.237,32.721,15.352c8.936,5.297,15.778,13.672,18.648,19.505c7.702,15.647,6.29,30.329,1.271,33.392
			c-4.591,1.385-3.925-9.931-6.308-14.136c-1.432-2.515-4.135-7.134-8.772-6.769c-8.176,0.645-19.398,19.414-22.338,20.67
			c-2.597,1.1-4.542,0.978-3.766-2.803c3.596-8.585,8.382-18.946,8.375-29.34C365.769,351.74,348.661,334.566,345.944,332.549z"/>
		<path fill="none" stroke="#E6E7E8" stroke-width="0.4401" stroke-linecap="square" d="M345.929,332.543
			c3.407,0.713,17.649,6.216,32.808,15.362c8.896,5.281,15.755,13.651,18.632,19.495c7.72,15.682,6.257,30.333,1.227,33.399
			c-4.601,1.39-3.932-9.914-6.322-14.115c-1.437-2.51-4.13-7.084-8.745-6.72c-8.139,0.642-19.399,19.343-22.351,20.605
			c-2.606,1.104-4.574,0.974-3.795-2.824c3.61-8.616,8.35-18.905,8.345-29.321C365.719,351.708,348.653,334.564,345.929,332.543z"/>
		<path fill="none" stroke="#E5E6E7" stroke-width="0.441" stroke-linecap="square" d="M345.915,332.538
			c3.413,0.713,17.711,6.194,32.895,15.371c8.857,5.266,15.73,13.632,18.613,19.487c7.735,15.714,6.224,30.335,1.185,33.407
			c-4.61,1.395-3.943-9.901-6.34-14.096c-1.442-2.508-4.124-7.036-8.715-6.671c-8.104,0.64-19.404,19.271-22.367,20.539
			c-2.618,1.109-4.605,0.973-3.822-2.841c3.625-8.652,8.319-18.87,8.312-29.309C365.668,351.677,348.643,334.564,345.915,332.538z"
			/>
		<path fill="none" stroke="#E4E5E6" stroke-width="0.4419" stroke-linecap="square" d="M345.9,332.531
			c3.42,0.716,17.773,6.173,32.979,15.382c8.82,5.246,15.708,13.609,18.597,19.478c7.75,15.746,6.192,30.335,1.141,33.415
			c-4.619,1.395-3.952-9.89-6.354-14.076c-1.448-2.508-4.118-6.986-8.687-6.625c-8.067,0.636-19.408,19.2-22.382,20.477
			c-2.628,1.111-4.637,0.965-3.851-2.862c3.64-8.688,8.288-18.833,8.282-29.292C365.617,351.645,348.635,334.562,345.9,332.531z"/>
		<path fill="none" stroke="#E4E5E6" stroke-width="0.4429" stroke-linecap="square" d="M345.885,332.526
			c3.428,0.718,17.837,6.153,33.068,15.39c8.78,5.232,15.683,13.589,18.577,19.469c7.769,15.78,6.16,30.337,1.098,33.422
			c-4.627,1.398-3.962-9.874-6.369-14.056c-1.453-2.506-4.113-6.936-8.659-6.576c-8.032,0.634-19.409,19.13-22.396,20.41
			c-2.638,1.117-4.67,0.965-3.879-2.882c3.653-8.721,8.256-18.793,8.252-29.272C365.568,351.612,348.626,334.561,345.885,332.526z"
			/>
		<path fill="none" stroke="#E3E4E5" stroke-width="0.4438" stroke-linecap="square" d="M345.87,332.52
			c3.434,0.721,17.899,6.132,33.154,15.4c8.74,5.217,15.66,13.569,18.562,19.461c7.781,15.81,6.125,30.338,1.054,33.431
			c-4.64,1.4-3.971-9.86-6.388-14.039c-1.456-2.5-4.106-6.886-8.627-6.528c-7.998,0.633-19.415,19.061-22.412,20.344
			c-2.65,1.123-4.701,0.963-3.908-2.896c3.667-8.758,8.226-18.758,8.221-29.259C365.517,351.58,348.616,334.561,345.87,332.52z"/>
		<path fill="none" stroke="#E2E3E4" stroke-width="0.4447" stroke-linecap="square" d="M345.855,332.515
			c3.443,0.721,17.962,6.111,33.242,15.408c8.702,5.201,15.636,13.549,18.541,19.455c7.8,15.841,6.094,30.337,1.013,33.436
			c-4.649,1.406-3.981-9.847-6.404-14.016c-1.462-2.501-4.102-6.838-8.6-6.482c-7.961,0.632-19.415,18.992-22.425,20.282
			c-2.661,1.123-4.733,0.956-3.938-2.918c3.684-8.793,8.196-18.721,8.19-29.244C365.466,351.549,348.607,334.557,345.855,332.515z"
			/>
		<path fill="none" stroke="#E1E2E3" stroke-width="0.4456" stroke-linecap="square" d="M345.841,332.509
			c3.449,0.723,18.023,6.091,33.328,15.419c8.664,5.183,15.612,13.526,18.523,19.442c7.815,15.876,6.062,30.342,0.97,33.447
			c-4.657,1.407-3.991-9.835-6.42-13.996c-1.468-2.5-4.097-6.79-8.57-6.437c-7.925,0.63-19.418,18.922-22.44,20.216
			c-2.671,1.131-4.766,0.953-3.966-2.938c3.698-8.825,8.166-18.679,8.159-29.225C365.415,351.517,348.6,334.558,345.841,332.509z"/>
		<path fill="none" stroke="#E0E1E3" stroke-width="0.4465" stroke-linecap="square" d="M345.826,332.503
			c3.457,0.725,18.087,6.069,33.416,15.428c8.624,5.167,15.586,13.507,18.506,19.434c7.83,15.909,6.026,30.342,0.925,33.452
			c-4.667,1.412-4-9.817-6.435-13.974c-1.475-2.498-4.093-6.74-8.544-6.388c-7.888,0.629-19.42,18.851-22.453,20.151
			c-2.683,1.133-4.797,0.949-3.996-2.956c3.714-8.86,8.136-18.643,8.13-29.208C365.366,351.484,348.589,334.556,345.826,332.503z"/>
		<path fill="none" stroke="#DFE1E2" stroke-width="0.4474" stroke-linecap="square" d="M345.811,332.499
			c3.463,0.725,18.149,6.047,33.503,15.436c8.586,5.151,15.563,13.487,18.488,19.426c7.847,15.941,5.996,30.346,0.883,33.462
			c-4.677,1.412-4.012-9.808-6.452-13.957c-1.479-2.497-4.086-6.691-8.514-6.34c-7.854,0.626-19.422,18.779-22.471,20.085
			c-2.69,1.14-4.827,0.948-4.021-2.975c3.727-8.895,8.103-18.604,8.096-29.194C365.314,351.453,348.581,334.554,345.811,332.499z"/>
		<path fill="none" stroke="#DFE0E1" stroke-width="0.4483" stroke-linecap="square" d="M345.798,332.492
			c3.469,0.728,18.21,6.028,33.589,15.447c8.545,5.135,15.54,13.466,18.468,19.417c7.864,15.974,5.965,30.348,0.841,33.472
			c-4.687,1.414-4.02-9.795-6.467-13.937c-1.485-2.496-4.082-6.643-8.487-6.293c-7.816,0.625-19.426,18.709-22.484,20.019
			c-2.7,1.143-4.857,0.943-4.049-2.991c3.741-8.935,8.071-18.569,8.067-29.179C365.266,351.421,348.571,334.552,345.798,332.492z"/>
		<path fill="none" stroke="#DEDFE0" stroke-width="0.4492" stroke-linecap="square" d="M345.782,332.487
			c3.478,0.728,18.272,6.006,33.676,15.456c8.508,5.118,15.517,13.443,18.451,19.407c7.88,16.006,5.932,30.349,0.799,33.479
			c-4.697,1.42-4.032-9.781-6.485-13.917c-1.488-2.493-4.076-6.593-8.457-6.244c-7.782,0.622-19.427,18.638-22.497,19.953
			c-2.714,1.148-4.892,0.941-4.079-3.012c3.756-8.966,8.039-18.531,8.034-29.162C365.215,351.39,348.561,334.552,345.782,332.487z"
			/>
		<path fill="none" stroke="#DDDEDF" stroke-width="0.4501" stroke-linecap="square" d="M345.768,332.481
			c3.484,0.729,18.336,5.984,33.763,15.464c8.469,5.102,15.492,13.424,18.435,19.4c7.894,16.038,5.897,30.352,0.754,33.488
			c-4.705,1.421-4.042-9.768-6.5-13.898c-1.495-2.492-4.07-6.546-8.43-6.197c-7.745,0.618-19.431,18.567-22.513,19.889
			c-2.725,1.151-4.923,0.938-4.106-3.028c3.771-9.004,8.009-18.495,8.003-29.148C365.164,351.356,348.552,334.55,345.768,332.481z"
			/>
		<path fill="none" stroke="#DCDDDF" stroke-width="0.451" stroke-linecap="square" d="M345.752,332.476
			c3.492,0.731,18.398,5.964,33.851,15.474c8.43,5.086,15.469,13.403,18.416,19.392c7.911,16.07,5.865,30.352,0.711,33.493
			c-4.715,1.426-4.051-9.753-6.518-13.876c-1.499-2.49-4.063-6.497-8.399-6.149c-7.709,0.616-19.434,18.497-22.527,19.822
			c-2.734,1.158-4.953,0.933-4.135-3.05c3.785-9.033,7.979-18.454,7.973-29.128C365.115,351.326,348.544,334.548,345.752,332.476z"
			/>
		<path fill="none" stroke="#DBDDDE" stroke-width="0.4519" stroke-linecap="square" d="M345.738,332.469
			c3.499,0.734,18.461,5.944,33.936,15.485c8.392,5.069,15.444,13.381,18.398,19.382c7.927,16.104,5.833,30.354,0.668,33.503
			c-4.724,1.428-4.06-9.739-6.531-13.859c-1.507-2.487-4.062-6.447-8.373-6.101c-7.674,0.613-19.436,18.427-22.541,19.758
			c-2.745,1.161-4.986,0.931-4.164-3.067c3.8-9.071,7.947-18.419,7.941-29.113C365.063,351.293,348.535,334.547,345.738,332.469z"/>
		<path fill="none" stroke="#DBDCDD" stroke-width="0.4529" stroke-linecap="square" d="M345.724,332.465
			c3.505,0.734,18.524,5.921,34.023,15.493c8.353,5.053,15.42,13.361,18.381,19.375c7.941,16.136,5.798,30.354,0.625,33.511
			c-4.734,1.428-4.07-9.727-6.549-13.838c-1.512-2.487-4.056-6.396-8.344-6.056c-7.639,0.615-19.439,18.358-22.558,19.694
			c-2.755,1.165-5.017,0.928-4.192-3.087c3.815-9.104,7.917-18.379,7.912-29.098C365.013,351.261,348.524,334.546,345.724,332.465z"
			/>
		<path fill="none" stroke="#DADBDC" stroke-width="0.4538" stroke-linecap="square" d="M345.708,332.459
			c3.514,0.736,18.586,5.901,34.11,15.501c8.316,5.038,15.397,13.34,18.362,19.365c7.959,16.168,5.769,30.357,0.58,33.519
			c-4.741,1.435-4.077-9.713-6.563-13.817c-1.517-2.486-4.049-6.35-8.312-6.007c-7.603,0.61-19.442,18.284-22.572,19.628
			c-2.765,1.169-5.049,0.924-4.221-3.104c3.829-9.142,7.887-18.344,7.881-29.082C364.964,351.228,348.518,334.544,345.708,332.459z"
			/>
		<path fill="none" stroke="#D9DADC" stroke-width="0.4547" stroke-linecap="square" d="M345.694,332.455
			c3.521,0.735,18.647,5.879,34.196,15.51c8.275,5.021,15.373,13.319,18.345,19.356c7.976,16.2,5.735,30.359,0.538,33.526
			c-4.752,1.437-4.088-9.7-6.581-13.798c-1.521-2.482-4.043-6.299-8.284-5.958c-7.567,0.607-19.443,18.215-22.587,19.561
			c-2.775,1.175-5.079,0.921-4.249-3.122c3.845-9.176,7.855-18.305,7.85-29.065C364.914,351.197,348.508,334.542,345.694,332.455z"
			/>
		<path fill="none" stroke="#D8D9DB" stroke-width="0.4556" stroke-linecap="square" d="M345.68,332.449
			c3.526,0.737,18.711,5.859,34.283,15.52c8.236,5.004,15.35,13.299,18.327,19.347c7.991,16.234,5.702,30.361,0.494,33.536
			c-4.762,1.438-4.099-9.686-6.596-13.778c-1.528-2.483-4.04-6.252-8.256-5.912c-7.532,0.607-19.448,18.145-22.603,19.497
			c-2.785,1.178-5.111,0.916-4.278-3.142c3.86-9.211,7.825-18.269,7.821-29.05C364.863,351.165,348.499,334.541,345.68,332.449z"/>
		<path fill="none" stroke="#D7D9DA" stroke-width="0.4565" stroke-linecap="square" d="M345.665,332.443
			c3.532,0.739,18.773,5.837,34.369,15.529c8.198,4.988,15.325,13.278,18.309,19.339c8.007,16.264,5.671,30.362,0.454,33.543
			c-4.772,1.441-4.109-9.674-6.613-13.759c-1.533-2.481-4.034-6.2-8.229-5.863c-7.496,0.604-19.45,18.074-22.615,19.43
			c-2.797,1.184-5.143,0.914-4.307-3.16c3.874-9.245,7.794-18.23,7.788-29.034C364.812,351.133,348.489,334.54,345.665,332.443z"/>
		<path fill="none" stroke="#D6D8D9" stroke-width="0.4574" stroke-linecap="square" d="M345.649,332.437
			c3.541,0.741,18.835,5.818,34.457,15.54c8.159,4.972,15.302,13.256,18.293,19.331c8.021,16.296,5.635,30.363,0.406,33.549
			c-4.779,1.445-4.117-9.658-6.628-13.737c-1.537-2.479-4.026-6.152-8.198-5.815c-7.46,0.602-19.453,18.003-22.631,19.365
			c-2.807,1.188-5.175,0.91-4.335-3.181c3.888-9.279,7.763-18.19,7.757-29.016C364.762,351.102,348.481,334.539,345.649,332.437z"/>
		<path fill="none" stroke="#D6D7D8" stroke-width="0.4583" stroke-linecap="square" d="M345.636,332.431
			c3.547,0.742,18.898,5.797,34.544,15.548c8.121,4.958,15.276,13.236,18.271,19.322c8.041,16.33,5.605,30.366,0.368,33.558
			c-4.791,1.451-4.127-9.645-6.646-13.717c-1.543-2.476-4.022-6.103-8.17-5.767c-7.424,0.6-19.455,17.932-22.646,19.298
			c-2.818,1.194-5.206,0.91-4.362-3.196c3.902-9.316,7.731-18.156,7.726-29.001C364.712,351.069,348.471,334.538,345.636,332.431z"
			/>
		<path fill="none" stroke="#D5D6D8" stroke-width="0.4592" stroke-linecap="square" d="M345.621,332.426
			c3.555,0.744,18.96,5.776,34.629,15.557c8.083,4.941,15.255,13.216,18.257,19.314c8.054,16.362,5.57,30.367,0.322,33.568
			c-4.801,1.449-4.138-9.632-6.661-13.699c-1.548-2.477-4.018-6.054-8.142-5.721c-7.388,0.598-19.458,17.863-22.66,19.234
			c-2.828,1.197-5.238,0.904-4.392-3.216c3.919-9.351,7.702-18.117,7.695-28.985C364.662,351.038,348.463,334.535,345.621,332.426z"
			/>
		<path fill="none" stroke="#D4D5D7" stroke-width="0.4601" stroke-linecap="square" d="M345.605,332.42
			c3.562,0.746,19.023,5.755,34.718,15.566c8.044,4.926,15.23,13.195,18.237,19.305c8.07,16.396,5.54,30.368,0.279,33.576
			c-4.81,1.454-4.146-9.618-6.678-13.68c-1.553-2.474-4.01-6.006-8.112-5.674c-7.353,0.597-19.46,17.795-22.674,19.173
			c-2.839,1.2-5.271,0.9-4.421-3.237c3.933-9.384,7.671-18.079,7.665-28.97C364.612,351.005,348.454,334.534,345.605,332.42z"/>
		<path fill="none" stroke="#D3D5D6" stroke-width="0.4611" stroke-linecap="square" d="M345.59,332.414
			c3.57,0.747,19.087,5.733,34.806,15.576c8.004,4.908,15.205,13.175,18.218,19.297c8.088,16.428,5.508,30.369,0.238,33.583
			c-4.819,1.457-4.158-9.605-6.692-13.659c-1.559-2.472-4.007-5.958-8.085-5.627c-7.317,0.596-19.463,17.725-22.689,19.105
			c-2.85,1.206-5.302,0.898-4.448-3.254c3.946-9.419,7.639-18.042,7.634-28.952C364.561,350.974,348.444,334.533,345.59,332.414z"/>
		<path fill="none" stroke="#D2D4D5" stroke-width="0.462" stroke-linecap="square" d="M345.577,332.408
			c3.576,0.749,19.147,5.713,34.892,15.586c7.965,4.892,15.179,13.154,18.2,19.288c8.102,16.458,5.474,30.372,0.193,33.588
			c-4.827,1.461-4.168-9.588-6.709-13.637c-1.563-2.47-4.001-5.907-8.057-5.579c-7.279,0.593-19.465,17.654-22.702,19.04
			c-2.859,1.211-5.334,0.896-4.479-3.272c3.963-9.455,7.608-18.004,7.603-28.936C364.511,350.941,348.436,334.531,345.577,332.408z"
			/>
		<path fill="none" stroke="#D2D3D5" stroke-width="0.4629" stroke-linecap="square" d="M345.562,332.403
			c3.584,0.75,19.211,5.692,34.978,15.595c7.927,4.875,15.159,13.133,18.184,19.278c8.118,16.493,5.441,30.375,0.151,33.6
			c-4.839,1.462-4.178-9.578-6.725-13.619c-1.57-2.469-3.996-5.858-8.028-5.532c-7.244,0.59-19.468,17.583-22.719,18.975
			c-2.87,1.217-5.364,0.891-4.505-3.293c3.976-9.488,7.578-17.965,7.572-28.919C364.461,350.91,348.426,334.529,345.562,332.403z"/>
		<path fill="none" stroke="#D1D2D4" stroke-width="0.4638" stroke-linecap="square" d="M345.548,332.397
			c3.59,0.752,19.271,5.671,35.064,15.605c7.888,4.859,15.134,13.112,18.165,19.269c8.134,16.525,5.408,30.375,0.108,33.608
			c-4.85,1.465-4.188-9.565-6.742-13.598c-1.575-2.468-3.991-5.812-8-5.484c-7.207,0.589-19.469,17.51-22.73,18.908
			c-2.882,1.221-5.396,0.889-4.536-3.308c3.991-9.526,7.549-17.93,7.541-28.905C364.41,350.877,348.419,334.528,345.548,332.397z"/>
		<path fill="none" stroke="#D0D1D3" stroke-width="0.4647" stroke-linecap="square" d="M345.532,332.392
			c3.599,0.752,19.336,5.65,35.153,15.613c7.848,4.842,15.109,13.092,18.146,19.263c8.151,16.556,5.375,30.375,0.065,33.613
			c-4.858,1.468-4.197-9.549-6.759-13.578c-1.58-2.466-3.984-5.761-7.969-5.436c-7.173,0.586-19.474,17.441-22.747,18.843
			c-2.893,1.223-5.429,0.887-4.562-3.328c4.003-9.56,7.515-17.89,7.508-28.889C364.358,350.846,348.409,334.527,345.532,332.392z"/>
		<path fill="none" stroke="#CFD1D2" stroke-width="0.4656" stroke-linecap="square" d="M345.518,332.387
			c3.604,0.755,19.398,5.629,35.238,15.623c7.811,4.827,15.087,13.07,18.13,19.252c8.167,16.589,5.342,30.379,0.021,33.624
			c-4.866,1.472-4.206-9.536-6.773-13.56c-1.586-2.463-3.979-5.711-7.94-5.386c-7.138,0.583-19.476,17.369-22.762,18.777
			c-2.903,1.229-5.459,0.883-4.591-3.347c4.019-9.596,7.484-17.854,7.479-28.873C364.311,350.813,348.399,334.526,345.518,332.387z"
			/>
		<path fill="none" stroke="#CED0D2" stroke-width="0.4665" stroke-linecap="square" d="M345.504,332.38
			c3.61,0.756,19.459,5.608,35.325,15.632c7.771,4.812,15.062,13.049,18.111,19.245c8.183,16.621,5.311,30.379-0.021,33.63
			c-4.878,1.475-4.217-9.524-6.791-13.539c-1.591-2.464-3.975-5.662-7.911-5.34c-7.102,0.582-19.479,17.3-22.777,18.711
			c-2.913,1.234-5.491,0.881-4.619-3.362c4.034-9.631,7.453-17.819,7.447-28.858C364.259,350.781,348.39,334.524,345.504,332.38z"/>
		<path fill="none" stroke="#CDCFD1" stroke-width="0.4674" stroke-linecap="square" d="M345.489,332.374
			c3.618,0.759,19.522,5.587,35.412,15.642c7.731,4.795,15.038,13.029,18.093,19.235c8.199,16.654,5.278,30.383-0.064,33.64
			c-4.887,1.475-4.228-9.512-6.807-13.52c-1.595-2.46-3.971-5.615-7.883-5.293c-7.065,0.58-19.481,17.228-22.792,18.649
			c-2.925,1.236-5.521,0.874-4.647-3.387c4.05-9.663,7.423-17.777,7.418-28.839C364.209,350.75,348.382,334.523,345.489,332.374z"/>
		<path fill="none" stroke="#CDCED0" stroke-width="0.4683" stroke-linecap="square" d="M345.475,332.369
			c3.624,0.76,19.584,5.567,35.498,15.651c7.693,4.777,15.015,13.009,18.077,19.228c8.214,16.687,5.244,30.384-0.11,33.646
			c-4.895,1.482-4.234-9.497-6.822-13.499c-1.6-2.459-3.963-5.565-7.854-5.246c-7.029,0.578-19.483,17.16-22.806,18.581
			c-2.935,1.244-5.555,0.875-4.677-3.4c4.064-9.7,7.391-17.741,7.387-28.825C364.157,350.718,348.371,334.521,345.475,332.369z"/>
		<path fill="none" stroke="#CCCDCF" stroke-width="0.4692" stroke-linecap="square" d="M345.459,332.364
			c3.633,0.76,19.647,5.545,35.586,15.66c7.655,4.763,14.991,12.988,18.059,19.218c8.23,16.72,5.212,30.386-0.152,33.655
			c-4.903,1.484-4.245-9.481-6.838-13.48c-1.605-2.456-3.959-5.515-7.826-5.196c-6.993,0.577-19.486,17.088-22.82,18.517
			c-2.945,1.246-5.586,0.869-4.705-3.423c4.079-9.734,7.362-17.703,7.355-28.809C364.108,350.686,348.363,334.521,345.459,332.364z"
			/>
		<path fill="none" stroke="#CBCDCE" stroke-width="0.4702" stroke-linecap="square" d="M345.444,332.358
			c3.64,0.762,19.71,5.523,35.673,15.669c7.616,4.746,14.967,12.965,18.039,19.209c8.247,16.75,5.18,30.386-0.193,33.664
			c-4.915,1.487-4.256-9.47-6.854-13.46c-1.612-2.456-3.954-5.468-7.799-5.15c-6.957,0.574-19.489,17.02-22.834,18.451
			c-2.957,1.25-5.619,0.867-4.734-3.44c4.094-9.768,7.33-17.665,7.324-28.792C364.058,350.653,348.354,334.52,345.444,332.358z"/>
		<path fill="none" stroke="#CACCCE" stroke-width="0.4711" stroke-linecap="square" d="M345.43,332.353
			c3.646,0.764,19.773,5.504,35.759,15.678c7.578,4.73,14.943,12.947,18.022,19.201c8.263,16.784,5.146,30.388-0.236,33.672
			c-4.925,1.486-4.266-9.456-6.871-13.439c-1.618-2.455-3.947-5.419-7.77-5.103c-6.922,0.571-19.49,16.949-22.849,18.385
			c-2.966,1.256-5.649,0.861-4.762-3.459c4.107-9.804,7.299-17.628,7.293-28.776C364.007,350.621,348.345,334.518,345.43,332.353z"
			/>
		<path fill="none" stroke="#C9CBCD" stroke-width="0.472" stroke-linecap="square" d="M345.416,332.346
			c3.651,0.766,19.835,5.483,35.846,15.688c7.538,4.713,14.92,12.926,18.003,19.192c8.278,16.814,5.115,30.39-0.279,33.68
			c-4.934,1.49-4.276-9.444-6.887-13.421c-1.621-2.453-3.943-5.371-7.739-5.054c-6.888,0.57-19.496,16.876-22.864,18.321
			c-2.979,1.258-5.682,0.857-4.791-3.479c4.122-9.837,7.268-17.587,7.263-28.759C363.957,350.589,348.336,334.515,345.416,332.346z"
			/>
		<path fill="none" stroke="#C8CACC" stroke-width="0.4729" stroke-linecap="square" d="M345.401,332.341
			c3.659,0.767,19.896,5.462,35.932,15.698c7.501,4.696,14.896,12.904,17.986,19.185c8.295,16.848,5.083,30.392-0.322,33.686
			c-4.944,1.494-4.287-9.43-6.903-13.399c-1.627-2.452-3.937-5.32-7.711-5.007c-6.851,0.567-19.498,16.806-22.879,18.256
			c-2.987,1.262-5.713,0.854-4.818-3.497c4.137-9.873,7.236-17.554,7.23-28.745C363.906,350.559,348.327,334.515,345.401,332.341z"
			/>
		<path fill="none" stroke="#C8C9CB" stroke-width="0.4738" stroke-linecap="square" d="M345.386,332.336
			c3.668,0.768,19.961,5.44,36.021,15.707c7.461,4.681,14.87,12.883,17.968,19.173c8.31,16.884,5.048,30.396-0.368,33.697
			c-4.952,1.496-4.293-9.417-6.918-13.381c-1.631-2.45-3.931-5.272-7.682-4.959c-6.815,0.566-19.501,16.736-22.894,18.188
			c-2.998,1.27-5.744,0.855-4.848-3.513c4.15-9.908,7.207-17.515,7.2-28.728C363.856,350.525,348.317,334.514,345.386,332.336z"/>
		<path fill="none" stroke="#C7C9CA" stroke-width="0.4747" stroke-linecap="square" d="M345.371,332.331
			c3.676,0.769,20.022,5.419,36.106,15.715c7.423,4.666,14.848,12.864,17.95,19.167c8.326,16.913,5.017,30.396-0.409,33.703
			c-4.963,1.5-4.303-9.401-6.935-13.359c-1.639-2.448-3.927-5.223-7.654-4.913c-6.78,0.563-19.505,16.665-22.908,18.123
			c-3.008,1.273-5.775,0.852-4.876-3.532c4.165-9.943,7.176-17.479,7.169-28.713C363.807,350.495,348.31,334.511,345.371,332.331z"
			/>
		<path fill="none" stroke="#C6C8CA" stroke-width="0.4756" stroke-linecap="square" d="M345.356,332.326
			c3.682,0.77,20.085,5.397,36.193,15.724c7.385,4.648,14.823,12.842,17.933,19.159c8.342,16.944,4.983,30.397-0.453,33.71
			c-4.971,1.502-4.314-9.389-6.951-13.341c-1.642-2.446-3.921-5.173-7.624-4.864c-6.744,0.562-19.507,16.594-22.924,18.06
			c-3.02,1.277-5.808,0.846-4.903-3.554c4.179-9.978,7.144-17.44,7.139-28.696C363.755,350.462,348.301,334.51,345.356,332.326z"/>
		<path fill="none" stroke="#C5C7C9" stroke-width="0.4765" stroke-linecap="square" d="M345.342,332.32
			c3.688,0.771,20.147,5.377,36.28,15.734c7.346,4.632,14.8,12.821,17.914,19.147c8.357,16.98,4.951,30.398-0.496,33.72
			c-4.98,1.506-4.323-9.374-6.967-13.319c-1.648-2.445-3.915-5.126-7.597-4.819c-6.707,0.561-19.508,16.526-22.936,17.996
			c-3.031,1.282-5.841,0.843-4.933-3.57c4.195-10.015,7.111-17.405,7.106-28.682C363.706,350.431,348.291,334.509,345.342,332.32z"
			/>
		<path fill="none" stroke="#C4C6C8" stroke-width="0.4775" stroke-linecap="square" d="M345.326,332.313
			c3.697,0.774,20.211,5.356,36.368,15.744c7.307,4.616,14.775,12.8,17.897,19.14c8.373,17.012,4.917,30.402-0.54,33.728
			c-4.991,1.507-4.333-9.362-6.982-13.299c-1.655-2.445-3.911-5.078-7.568-4.77c-6.672,0.556-19.512,16.452-22.952,17.928
			c-3.04,1.287-5.871,0.84-4.962-3.589c4.21-10.05,7.082-17.367,7.078-28.664C363.655,350.398,348.281,334.507,345.326,332.313z"/>
		<path fill="none" stroke="#C3C5C7" stroke-width="0.4784" stroke-linecap="square" d="M345.313,332.308
			c3.701,0.775,20.271,5.335,36.453,15.752c7.267,4.601,14.752,12.78,17.878,19.131c8.39,17.043,4.886,30.403-0.581,33.736
			c-5.001,1.51-4.345-9.348-7-13.28c-1.658-2.44-3.905-5.027-7.54-4.723c-6.636,0.557-19.513,16.386-22.967,17.865
			c-3.05,1.291-5.901,0.836-4.988-3.608c4.225-10.083,7.053-17.328,7.047-28.649C363.604,350.366,348.272,334.506,345.313,332.308z"
			/>
		<path fill="none" stroke="#C3C4C7" stroke-width="0.4793" stroke-linecap="square" d="M345.298,332.303
			c3.71,0.775,20.337,5.314,36.541,15.761c7.228,4.585,14.729,12.76,17.859,19.124c8.407,17.075,4.853,30.404-0.624,33.742
			c-5.011,1.516-4.353-9.333-7.016-13.26c-1.664-2.439-3.9-4.977-7.511-4.674c-6.6,0.554-19.517,16.315-22.981,17.798
			c-3.06,1.297-5.935,0.832-5.018-3.628c4.239-10.116,7.021-17.288,7.015-28.63C363.555,350.335,348.264,334.504,345.298,332.303z"
			/>
		<path fill="none" stroke="#C2C4C6" stroke-width="0.4802" stroke-linecap="square" d="M345.284,332.296
			c3.717,0.779,20.396,5.294,36.627,15.771c7.189,4.568,14.703,12.739,17.843,19.113c8.421,17.11,4.818,30.41-0.669,33.753
			c-5.02,1.517-4.364-9.322-7.031-13.24c-1.67-2.438-3.894-4.93-7.482-4.627c-6.564,0.551-19.52,16.243-22.995,17.734
			c-3.072,1.301-5.966,0.83-5.046-3.646c4.253-10.153,6.99-17.254,6.982-28.617C363.504,350.303,348.255,334.503,345.284,332.296z"
			/>
		<path fill="none" stroke="#C1C3C5" stroke-width="0.4811" stroke-linecap="square" d="M345.27,332.291
			c3.723,0.779,20.458,5.273,36.713,15.78c7.151,4.552,14.681,12.717,17.824,19.105c8.439,17.141,4.789,30.407-0.709,33.76
			c-5.029,1.521-4.375-9.307-7.049-13.221c-1.675-2.436-3.889-4.88-7.453-4.58c-6.529,0.549-19.522,16.173-23.012,17.668
			c-3.082,1.304-5.996,0.825-5.073-3.665c4.268-10.187,6.958-17.213,6.952-28.6C363.454,350.271,348.245,334.502,345.27,332.291z"/>
		<path fill="none" stroke="#C0C2C4" stroke-width="0.482" stroke-linecap="square" d="M345.254,332.285
			c3.731,0.781,20.521,5.251,36.802,15.79c7.111,4.535,14.655,12.697,17.807,19.097c8.454,17.174,4.753,30.41-0.754,33.768
			c-5.039,1.521-4.384-9.296-7.065-13.202c-1.681-2.434-3.883-4.831-7.423-4.531c-6.494,0.546-19.525,16.102-23.026,17.603
			c-3.092,1.308-6.027,0.823-5.104-3.683c4.283-10.223,6.93-17.179,6.923-28.584C363.404,350.238,348.236,334.499,345.254,332.285z"
			/>
		<path fill="none" stroke="#BFC1C3" stroke-width="0.4829" stroke-linecap="square" d="M345.238,332.279
			c3.74,0.783,20.587,5.231,36.889,15.799c7.073,4.52,14.633,12.678,17.789,19.09c8.469,17.206,4.723,30.41-0.797,33.776
			c-5.049,1.523-4.393-9.282-7.08-13.184c-1.686-2.432-3.879-4.779-7.396-4.483c-6.457,0.545-19.527,16.033-23.038,17.538
			c-3.104,1.312-6.062,0.818-5.133-3.702c4.297-10.258,6.897-17.138,6.891-28.566C363.354,350.206,348.229,334.499,345.238,332.279z
			"/>
		<path fill="none" stroke="#BFC0C3" stroke-width="0.4838" stroke-linecap="square" d="M345.225,332.274
			c3.745,0.784,20.646,5.21,36.975,15.808c7.035,4.503,14.609,12.657,17.771,19.08c8.486,17.238,4.689,30.413-0.841,33.784
			c-5.057,1.527-4.401-9.269-7.097-13.161c-1.688-2.432-3.871-4.732-7.365-4.437c-6.422,0.543-19.53,15.962-23.055,17.473
			c-3.114,1.316-6.092,0.816-5.16-3.72c4.312-10.292,6.866-17.103,6.86-28.554C363.303,350.174,348.219,334.497,345.225,332.274z"/>
		<path fill="none" stroke="#BEC0C2" stroke-width="0.4847" stroke-linecap="square" d="M345.209,332.269
			c3.754,0.785,20.71,5.189,37.062,15.817c6.997,4.487,14.584,12.635,17.753,19.072c8.502,17.271,4.656,30.414-0.884,33.791
			c-5.067,1.533-4.411-9.252-7.112-13.141c-1.696-2.43-3.867-4.683-7.339-4.388c-6.386,0.539-19.532,15.891-23.068,17.406
			c-3.124,1.323-6.125,0.814-5.188-3.737c4.326-10.328,6.834-17.066,6.829-28.537C363.253,350.142,348.21,334.496,345.209,332.269z"
			/>
		<path fill="none" stroke="#BDBFC1" stroke-width="0.4857" stroke-linecap="square" d="M345.195,332.262
			c3.759,0.788,20.771,5.168,37.148,15.828c6.957,4.47,14.561,12.615,17.734,19.062c8.519,17.304,4.624,30.417-0.926,33.8
			c-5.075,1.535-4.422-9.239-7.128-13.121c-1.702-2.428-3.863-4.635-7.311-4.341c-6.35,0.54-19.534,15.821-23.084,17.341
			c-3.134,1.326-6.155,0.811-5.217-3.758c4.343-10.361,6.805-17.025,6.799-28.519C363.202,350.111,348.201,334.495,345.195,332.262z
			"/>
		<path fill="none" stroke="#BCBEC0" stroke-width="0.4866" stroke-linecap="square" d="M345.182,332.257
			c3.766,0.79,20.834,5.147,37.234,15.836c6.918,4.456,14.536,12.595,17.717,19.054c8.533,17.336,4.591,30.417-0.969,33.809
			c-5.086,1.536-4.433-9.228-7.146-13.101c-1.706-2.427-3.855-4.587-7.281-4.296c-6.314,0.538-19.538,15.752-23.098,17.277
			c-3.146,1.332-6.187,0.809-5.246-3.775c4.356-10.399,6.773-16.99,6.768-28.503C363.153,350.079,348.191,334.493,345.182,332.257z"
			/>
		<path fill="none" stroke="#BBBDBF" stroke-width="0.4875" stroke-linecap="square" d="M345.167,332.251
			c3.772,0.792,20.896,5.127,37.321,15.846c6.879,4.438,14.514,12.573,17.699,19.044c8.549,17.369,4.558,30.421-1.014,33.817
			c-5.094,1.542-4.439-9.212-7.16-13.081c-1.713-2.425-3.853-4.539-7.253-4.248c-6.277,0.537-19.539,15.681-23.112,17.211
			c-3.156,1.338-6.219,0.803-5.273-3.794c4.371-10.433,6.742-16.952,6.736-28.487C363.101,350.046,348.183,334.492,345.167,332.251z
			"/>
		<path fill="none" stroke="#BABCBF" stroke-width="0.4884" stroke-linecap="square" d="M345.151,332.247
			c3.781,0.792,20.959,5.104,37.408,15.854c6.843,4.423,14.489,12.553,17.681,19.037c8.565,17.4,4.526,30.421-1.055,33.824
			c-5.104,1.542-4.451-9.2-7.177-13.062c-1.716-2.421-3.846-4.485-7.225-4.197c-6.241,0.533-19.543,15.609-23.127,17.145
			c-3.166,1.342-6.251,0.802-5.302-3.813c4.386-10.468,6.712-16.914,6.705-28.472C363.051,350.015,348.174,334.491,345.151,332.247z
			"/>
		<path fill="none" stroke="#BABCBE" stroke-width="0.4893" stroke-linecap="square" d="M345.137,332.24
			c3.787,0.794,21.021,5.085,37.496,15.865c6.801,4.406,14.464,12.532,17.663,19.029c8.58,17.432,4.493,30.421-1.099,33.831
			c-5.115,1.547-4.461-9.187-7.193-13.042c-1.722-2.42-3.841-4.438-7.195-4.15c-6.205,0.53-19.545,15.539-23.143,17.081
			c-3.177,1.346-6.281,0.797-5.33-3.833c4.4-10.501,6.681-16.877,6.677-28.454C363.001,349.982,348.163,334.489,345.137,332.24z"/>
		<path fill="none" stroke="#B9BBBD" stroke-width="0.4902" stroke-linecap="square" d="M345.122,332.234
			c3.795,0.795,21.084,5.063,37.582,15.875c6.764,4.39,14.441,12.51,17.646,19.019c8.596,17.466,4.46,30.423-1.143,33.84
			c-5.124,1.549-4.471-9.173-7.211-13.021c-1.726-2.421-3.835-4.39-7.166-4.105c-6.169,0.531-19.548,15.469-23.155,17.015
			c-3.188,1.35-6.314,0.795-5.358-3.851c4.414-10.538,6.649-16.837,6.644-28.439C362.951,349.952,348.156,334.488,345.122,332.234z"
			/>
		<path fill="none" stroke="#B8BABC" stroke-width="0.4911" stroke-linecap="square" d="M345.107,332.229
			c3.801,0.796,21.147,5.043,37.669,15.882c6.725,4.375,14.417,12.49,17.627,19.011c8.614,17.499,4.428,30.424-1.186,33.847
			c-5.132,1.553-4.479-9.157-7.226-13c-1.731-2.42-3.828-4.342-7.136-4.058c-6.135,0.528-19.551,15.4-23.172,16.953
			c-3.197,1.352-6.345,0.789-5.388-3.87c4.429-10.572,6.618-16.803,6.613-28.424C362.899,349.919,348.146,334.486,345.107,332.229z"
			/>
		<path fill="none" stroke="#B7B9BB" stroke-width="0.492" stroke-linecap="square" d="M345.093,332.224
			c3.809,0.797,21.209,5.021,37.757,15.892c6.685,4.357,14.392,12.469,17.608,19.002c8.631,17.532,4.396,30.429-1.229,33.856
			c-5.142,1.555-4.489-9.146-7.242-12.983c-1.737-2.414-3.823-4.291-7.108-4.007c-6.099,0.525-19.553,15.33-23.185,16.885
			c-3.209,1.357-6.377,0.787-5.415-3.888c4.442-10.608,6.587-16.764,6.581-28.407C362.851,349.887,348.138,334.485,345.093,332.224z
			"/>
		<path fill="none" stroke="#B6B8BB" stroke-width="0.4929" stroke-linecap="square" d="M345.078,332.218
			c3.816,0.799,21.271,5.002,37.842,15.901c6.648,4.342,14.37,12.449,17.593,18.994c8.646,17.562,4.362,30.428-1.272,33.865
			c-5.151,1.557-4.499-9.133-7.258-12.963c-1.743-2.415-3.818-4.242-7.078-3.961c-6.064,0.524-19.557,15.259-23.201,16.819
			c-3.22,1.363-6.408,0.785-5.445-3.907c4.459-10.641,6.558-16.725,6.551-28.389C362.8,349.855,348.129,334.484,345.078,332.218z"/>
		<path fill="none" stroke="#B5B7BA" stroke-width="0.4938" stroke-linecap="square" d="M345.064,332.213
			c3.821,0.801,21.332,4.979,37.929,15.911c6.608,4.325,14.347,12.426,17.572,18.984c8.662,17.595,4.33,30.431-1.312,33.873
			c-5.162,1.56-4.51-9.12-7.273-12.944c-1.749-2.412-3.813-4.192-7.052-3.912c-6.028,0.521-19.56,15.188-23.215,16.754
			c-3.231,1.367-6.44,0.781-5.473-3.925c4.472-10.677,6.525-16.689,6.519-28.376C362.749,349.823,348.12,334.482,345.064,332.213z"
			/>
		<path fill="none" stroke="#B5B7B9" stroke-width="0.4947" stroke-linecap="square" d="M345.049,332.208
			c3.83,0.801,21.396,4.958,38.017,15.919c6.569,4.31,14.322,12.407,17.555,18.975c8.679,17.63,4.298,30.434-1.356,33.881
			c-5.172,1.565-4.52-9.104-7.29-12.922c-1.754-2.412-3.809-4.146-7.023-3.867c-5.99,0.52-19.562,15.119-23.229,16.69
			c-3.239,1.371-6.471,0.777-5.501-3.944c4.488-10.711,6.494-16.649,6.49-28.36C362.7,349.791,348.11,334.48,345.049,332.208z"/>
		<path fill="none" stroke="#B4B6B8" stroke-width="0.4957" stroke-linecap="square" d="M345.033,332.202
			c3.838,0.803,21.46,4.937,38.104,15.929c6.531,4.292,14.298,12.386,17.538,18.966c8.694,17.662,4.265,30.434-1.4,33.888
			c-5.181,1.567-4.529-9.091-7.306-12.901c-1.759-2.411-3.804-4.096-6.994-3.82c-5.956,0.517-19.565,15.047-23.243,16.625
			c-3.253,1.375-6.504,0.773-5.531-3.964c4.502-10.746,6.465-16.613,6.458-28.344C362.648,349.759,348.102,334.479,345.033,332.202z
			"/>
		<path fill="none" stroke="#B3B5B7" stroke-width="0.4966" stroke-linecap="square" d="M345.019,332.196
			c3.845,0.804,21.522,4.917,38.19,15.938c6.492,4.277,14.274,12.365,17.52,18.957c8.71,17.693,4.231,30.438-1.442,33.897
			c-5.191,1.569-4.539-9.078-7.323-12.884c-1.764-2.408-3.798-4.047-6.965-3.77c-5.92,0.514-19.567,14.975-23.259,16.557
			c-3.262,1.381-6.534,0.771-5.559-3.982c4.517-10.78,6.435-16.574,6.428-28.325C362.598,349.728,348.094,334.477,345.019,332.196z"
			/>
		<path fill="none" stroke="#B2B4B7" stroke-width="0.4975" stroke-linecap="square" d="M345.005,332.191
			c3.851,0.805,21.585,4.895,38.277,15.946c6.452,4.262,14.25,12.346,17.502,18.952c8.725,17.724,4.198,30.437-1.488,33.904
			c-5.199,1.568-4.548-9.066-7.336-12.863c-1.771-2.406-3.793-3.997-6.94-3.724c-5.882,0.513-19.567,14.906-23.271,16.492
			c-3.273,1.384-6.566,0.767-5.589-4c4.533-10.816,6.404-16.539,6.397-28.311C362.548,349.695,348.084,334.476,345.005,332.191z"/>
	</g>
	<g>
		<path fill="none" stroke="#B1B3B6" stroke-width="0.4984" stroke-linecap="square" d="M344.99,332.184
			c3.858,0.809,21.646,4.875,38.362,15.957c6.415,4.245,14.229,12.324,17.486,18.942c8.739,17.756,4.165,30.44-1.531,33.912
			c-5.211,1.575-4.558-9.053-7.353-12.842c-1.775-2.405-3.788-3.948-6.91-3.676c-5.847,0.51-19.572,14.834-23.287,16.426
			c-3.283,1.389-6.599,0.764-5.615-4.019c4.546-10.849,6.37-16.5,6.365-28.292C362.497,349.662,348.073,334.475,344.99,332.184z"/>
	</g>
</g>
<g>
	<g>
		<g>
			<path fill="none" stroke="#000000" stroke-width="1.8322" stroke-linecap="square" d="M344.941,332.082
				c3.87,0.81,21.729,4.849,38.491,15.984c6.346,4.216,14.17,12.277,17.438,18.915c8.771,17.816,4.15,30.443-1.566,33.926
				c-5.225,1.581-4.573-9.026-7.382-12.806c-1.784-2.403-3.796-3.892-6.877-3.625c-5.866,0.51-19.57,14.758-23.308,16.359
				c-3.301,1.397-6.635,0.769-5.646-4.042c4.572-10.911,6.34-16.458,6.334-28.292C362.415,349.514,348.036,334.379,344.941,332.082z
				"/>
		</g>
	</g>
</g>
<path d="M362.425,368.502c-0.009-16.428-14.729-34.374-17.483-36.42c3.87,0.81,21.729,4.849,38.491,15.984L362.425,368.502z"/>
<path fill="none" stroke="#ED1C24" stroke-width="0.1832" d="M375.564,347.071c-0.589,1.618-1.725,2.936-2.533,2.94
	c-0.811,0.006-0.989-1.302-0.402-2.919c0.59-1.619,1.727-2.936,2.535-2.942C375.975,344.145,376.154,345.451,375.564,347.071z"/>
<path fill="#FFFFFF" stroke="#FFFFFF" stroke-width="0.1099" d="M441.895,341.234c-0.481,1.319-1.406,2.394-2.068,2.398
	c-0.661,0.005-0.806-1.062-0.326-2.382c0.481-1.321,1.405-2.395,2.068-2.398C442.228,338.846,442.375,339.912,441.895,341.234z"/>
<ellipse transform="matrix(0.8844 0.4667 -0.4667 0.8844 206.614 -138.1802)" fill="none" cx="382.25" cy="348" rx="1.98" ry="3.961"/>
<path stroke="#000000" stroke-width="0.3664" d="M398.688,333.9c0.392,4.038,0.211,7.574,0.781,11.627
	c0.296,2.341-0.348,2.27-2.593,2.952c-1.841,0.489-10.341,1.8-11.317,1.051l6.391,6.036c-1.253-1.2,1.032-3.316,2.637-3.598
	c3.925-0.709,8.465-3.503,7.586-5.368c-0.877-1.865-1.921-10.588-1.027-16.804L398.688,333.9z"/>
<g>
	<path stroke="#000000" stroke-width="0.3664" d="M399.809,332.077c-1.097-0.537-0.764-0.127-2.13-0.115
		c-0.584,0.006-0.968,0.789-0.847,1.139c0.93,3.464,2.126,4.187,5.604,4.818c0.979,0.186,1.667-1.225,1.582-2.043
		c-0.05-1.092-0.595-1.257-1.307-2.186L399.809,332.077z"/>
	<path stroke="#000000" stroke-width="0.3664" d="M393.705,328.126c2.227,4.4,5.479,6.249,7.249,6.57
		c3.602,1.062,6.584-1.567,7.311-5.425c0.062-0.884,0.125-1.769-1.026-2.182c0,0-0.477-1.847-1.725-2.939
		c0.341,0.299-4.065-5.219-3.693-4.912C393.149,312.034,391.477,323.726,393.705,328.126z"/>
	<g>
		<g>
			<path d="M403.369,322.957c0.983-0.449,2.118-0.822,3.021,0.013c1.055,0.911,1.616,2.236,1.685,3.595
				c0.221,1.437-1.105,2.375-2.313,2.142c-1.734-0.309-1.991-2.236-2.477-3.711L403.369,322.957z"/>
			<path fill="#FFFFFF" d="M407.812,327.51c-0.338,0.858-1.341,1.269-2.246,1.096c-0.262-0.047-0.521-0.136-0.737-0.305
				c0.243,0.219,0.493,0.397,0.801,0.453C406.533,328.928,407.474,328.369,407.812,327.51z"/>
			<path d="M401.232,317.818c1.423-0.648,3.062-1.187,4.365,0.018c1.522,1.315,2.332,3.229,2.434,5.195
				c0.318,2.076-1.597,3.429-3.342,3.095c-2.509-0.447-2.879-3.231-3.578-5.363L401.232,317.818z"/>
			<path d="M399.056,319.935c1.925,1.147,4.03,3.008,6.218,1.7c1.536-0.892,2.093-3.172,0.491-4.528
				c-1.365-1.417-3.231-2.33-5.244-2.325c-1.774-0.055-2.658,1.426-3.306,2.85L399.056,319.935z"/>
			<path fill="#FFFFFF" d="M407.65,324.395c-0.486,1.242-1.936,1.835-3.244,1.582c-0.378-0.067-0.755-0.194-1.064-0.438
				c0.352,0.315,0.711,0.574,1.155,0.652C405.804,326.443,407.164,325.637,407.65,324.395z"/>
			<path fill="#FFFFFF" d="M405.674,317.006c1.601,1.356,0.905,3.59-0.632,4.482c-0.934,0.558-1.852,0.539-2.748,0.245l-0.288-0.128
				c1.075,0.482,2.185,0.653,3.315-0.023C406.858,320.689,407.274,318.362,405.674,317.006z"/>
		</g>
	</g>
</g>
<g>
	<path d="M393.337,327.69c-0.785-0.377-0.418-1.147-0.757-1.722c-0.858-2.057,0.223-7.548,1.653-9.517
		c1.048-1.669,3.604,0.046,4.404,1.397c1.399,2.609-0.841,8.607-2.468,10.481c-0.095,0.196-1.164,0.407-1.752,0.124L393.337,327.69z
		"/>
</g>
<g>
	<g>
		<path fill="#964B36" d="M377.667,439c34.98-28.786,30.596-69.607,23.782-100.118c-8.381-37.531-43.118-60.973-43.118-60.973
			l-0.253-1.82c13.334,4.815,23.392,13.276,32.269,24.427c22.278,26.952,32.618,47.346,26.097,101.052
			c-0.882,7.254-5.078,13.733-8.11,20.432c-3.223,7.119-10.875,15.5,1.879,17.321"/>
		<g>
			<path fill="none" d="M377.667,439c34.98-28.786,30.596-69.607,23.782-100.118c-8.381-37.531-43.118-60.973-43.118-60.973
				l-0.253-1.82c13.334,4.815,23.392,13.276,32.269,24.427c22.278,26.952,32.618,47.346,26.097,101.052
				c-0.882,7.254-5.078,13.733-8.11,20.432c-3.223,7.119-10.875,15.5,1.879,17.321"/>
			<path d="M377.667,439.9c15.472-12.978,24.945-30.201,27.696-50.188c2.099-15.245,0.333-30.847-2.644-45.844
				c-3.639-18.333-11.786-34.273-24.065-48.332c-4.393-5.029-9.238-9.67-14.363-13.946c-2.254-1.88-5.755-3.311-6.168-6.277
				c-0.015,0.559-0.029,1.118-0.045,1.677c17.059,6.391,28.671,19.226,39.394,33.42c8.59,11.37,15.177,23.827,18.339,37.787
				c2.214,9.776,2.648,19.882,2.398,29.869c-0.32,12.778-1.169,25.336-6.9,36.917c-2.712,5.479-7.565,12.059-8.265,18.25
				c-0.528,4.681,2.967,6.246,7.168,6.989c0.033,0.006,0.229-1.76,0-1.801c-4.75-0.84-8.203-2.54-5.78-7.995
				c1.604-3.611,3.661-7.079,5.392-10.638c2.22-4.565,4.921-9.142,6.039-14.146c1.144-5.11,1.452-10.431,1.884-15.641
				c1.225-14.794,1.199-29.917-2.094-44.456c-3.005-13.271-9.487-25.135-17.497-36.019c-10.724-14.574-22.744-27.844-40.077-34.337
				c-0.063-0.024-0.066,1.526-0.045,1.677c0.338,2.437,1.013,2.408,2.975,3.902c3.846,2.93,7.465,6.154,10.937,9.515
				c11.858,11.479,21.555,25.339,27.07,40.954c6.323,17.898,8.653,39.522,6.078,58.226c-2.66,19.331-12.546,36.157-27.426,48.636
				C377.307,438.402,377.868,439.73,377.667,439.9L377.667,439.9z"/>
		</g>
	</g>
</g>
<g>
	<path fill="#00AB4E" d="M373.352,281.194l-17.125-15.304c-5.467,0.729-10.568,4.008-15.305,6.923
		c-2.123,1.18-4.238,2.382-6.338,3.604l3.787,13.886l-8.783-10.912c-5.957,3.629-11.768,7.483-17.321,11.675l3.149,12.354
		l-8.159-8.414c-1.18,0.966-2.35,1.945-3.501,2.948c-2.91,2.546-6.183,5.417-9.362,8.555l2.075,6.385l-4.049-4.387
		c-5.607,5.835-10.605,12.502-12.348,19.69c3.625-0.543,12.369-2.283,23.174-4.947l-2.769-6.713l5.83,5.947
		c4.913-1.248,10.168-2.669,15.508-4.243l-2.755-8.992l5.408,8.2c5.958-1.804,11.968-3.791,17.669-5.928l-1.215-13.568l8.846,10.529
		c5.744-2.44,10.941-5.038,15.152-7.755l-8.33-12.248l13.605,8.304C375.766,291.827,377.627,286.559,373.352,281.194z"/>
	<path fill="#00AB4E" d="M372.707,285.127l-7.158-21.823c-5.096-2.107-11.154-1.824-16.713-1.674
		c-2.43-0.043-4.861-0.061-7.291-0.054l-3.678,13.915l-2.135-13.843c-6.976,0.156-13.936,0.582-20.842,1.428l-3.463,12.27
		l-2.848-11.369c-1.505,0.245-3.008,0.506-4.506,0.798c-3.794,0.746-8.065,1.591-12.389,2.714l-1.402,6.565l-1.307-5.824
		c-7.776,2.242-15.442,5.508-20.55,10.856c3.41,1.346,11.849,4.22,22.535,7.326l0.967-7.197l2.067,8.067
		c4.877,1.381,10.138,2.783,15.549,4.097l2.119-9.163l0.573,9.806c6.062,1.424,12.257,2.714,18.263,3.721l5.744-12.352l2.381,13.543
		c6.195,0.766,11.994,1.12,17,0.878l-1.074-14.773l7.615,14.001C369.471,295.54,373.719,291.912,372.707,285.127z"/>
	<path fill="#00AB4E" d="M337.933,296.817l20.549,10.259c5.082-2.141,9.141-6.648,12.943-10.706
		c1.738-1.697,3.461-3.414,5.166-5.146l-7.307-12.4l11.343,8.216c4.794-5.068,9.387-10.316,13.642-15.821l-6.289-11.09l10.084,5.97
		c0.885-1.243,1.756-2.495,2.604-3.766c2.137-3.222,4.539-6.853,6.781-10.717l-3.682-5.613l5.061,3.167
		c3.873-7.106,6.941-14.853,6.732-22.246c-3.355,1.478-11.333,5.457-21.057,10.87l4.438,5.748l-7.189-4.204
		c-4.41,2.497-9.107,5.251-13.846,8.174l5.023,7.95l-7.373-6.488c-5.276,3.308-10.55,6.805-15.488,10.367l4.742,12.771
		l-11.304-7.831c-4.901,3.866-9.231,7.74-12.578,11.468l11.259,9.625l-15.311-4.432
		C332.806,287.194,332.396,292.767,337.933,296.817z"/>
	<path fill="#00AB4E" d="M371.542,280.922l-9.247,17.287c1.742,2.454,5.541,3.324,8.961,4.203c1.427,0.464,2.871,0.91,4.328,1.337
		l10.824-9.554l-7.301,10.536c4.27,1.127,8.696,2.054,13.354,2.662l9.676-8.385l-5.343,8.846c1.052,0.089,2.112,0.166,3.19,0.218
		c2.731,0.128,5.811,0.267,9.094,0.213l4.91-4.568l-2.83,4.507c6.042-0.261,12.652-1.293,19.023-4.308
		c-1.205-1.595-4.473-5.206-8.939-9.386l-5.04,5.108l3.765-6.287c-2.062-1.88-4.341-3.846-6.764-5.773l-6.947,6.346l5.736-7.297
		c-2.744-2.124-5.65-4.172-8.619-5.98l-11.094,8.041l6.971-10.36c-3.232-1.666-6.48-2.958-9.625-3.671l-8.516,11.03l4.123-11.629
		C379.932,273.858,375.141,275.764,371.542,280.922z"/>
	<path fill="#00AB4E" d="M363.312,288.976l-15.42-12.2c-2.729,1.284-4.266,4.879-5.742,8.098c-0.709,1.326-1.407,2.672-2.089,4.034
		l7.506,12.383l-9.102-9.082c-1.871,4.014-3.572,8.22-5.001,12.708l6.557,11.041l-7.782-6.845c-0.274,1.022-0.538,2.056-0.782,3.11
		c-0.611,2.674-1.297,5.689-1.827,8.939l3.636,5.657l-3.945-3.593c-0.816,6.01-0.973,12.719,0.871,19.543
		c1.787-0.908,5.934-3.49,10.854-7.157l-4.146-5.882l5.537,4.833c2.223-1.701,4.568-3.601,6.9-5.648l-5.028-7.986l6.182,6.958
		c2.585-2.331,5.124-4.835,7.436-7.444l-5.964-12.379l8.986,8.722c2.219-2.894,4.071-5.871,5.334-8.848l-9.373-10.365l10.744,6.137
		C368.792,298.513,367.763,293.445,363.312,288.976z"/>
</g>
<g>
	<g>
		<ellipse fill="#8B8F9E" stroke="#000000" stroke-miterlimit="1" cx="361" cy="301.542" rx="13.6" ry="12.609"/>
		<line fill="none" stroke="#000000" stroke-miterlimit="1" x1="354.999" y1="295.04" x2="357.499" y2="296.813"/>
		<line fill="none" stroke="#000000" stroke-miterlimit="1" x1="354.749" y1="290.311" x2="357.249" y2="292.084"/>
		<line fill="none" stroke="#000000" stroke-miterlimit="1" x1="360.999" y1="294.646" x2="360.999" y2="292.084"/>
		<line fill="none" stroke="#000000" stroke-miterlimit="1" x1="360.999" y1="298.783" x2="363.249" y2="297.207"/>
		<line fill="none" stroke="#000000" stroke-miterlimit="1" x1="355.499" y1="299.768" x2="359.249" y2="300.753"/>
		<line fill="none" stroke="#000000" stroke-miterlimit="1" x1="351.499" y1="299.965" x2="352.749" y2="302.526"/>
		<line fill="none" stroke="#000000" stroke-miterlimit="1" x1="366.999" y1="302.33" x2="364.499" y2="304.103"/>
		<line fill="none" stroke="#000000" stroke-miterlimit="1" x1="373.499" y1="297.601" x2="370.999" y2="299.374"/>
		<line fill="none" stroke="#000000" stroke-miterlimit="1" x1="360.999" y1="301.936" x2="360.999" y2="299.374"/>
		<line fill="none" stroke="#000000" stroke-miterlimit="1" x1="353.249" y1="307.846" x2="353.249" y2="305.285"/>
		<line fill="none" stroke="#000000" stroke-miterlimit="1" x1="360.999" y1="306.073" x2="358.749" y2="304.497"/>
		<line fill="none" stroke="#000000" stroke-miterlimit="1" x1="357.749" y1="312.181" x2="355.499" y2="310.604"/>
		<line fill="none" stroke="#000000" stroke-miterlimit="1" x1="363.999" y1="312.771" x2="361.749" y2="311.195"/>
		<line fill="none" stroke="#000000" stroke-miterlimit="1" x1="366.499" y1="307.058" x2="362.749" y2="308.043"/>
		<line fill="none" stroke="#000000" stroke-miterlimit="1" x1="369.499" y1="298.783" x2="365.749" y2="299.768"/>
		<line fill="none" stroke="#000000" stroke-miterlimit="1" x1="352.249" y1="296.813" x2="348.499" y2="297.798"/>
		<line fill="none" stroke="#000000" stroke-miterlimit="1" x1="369.749" y1="291.887" x2="365.999" y2="292.873"/>
		<line fill="none" stroke="#000000" stroke-miterlimit="1" x1="370.499" y1="307.255" x2="369.249" y2="309.816"/>
		<line fill="none" stroke="#000000" stroke-miterlimit="1" x1="350.749" y1="304.497" x2="349.499" y2="307.058"/>
		<line fill="none" stroke="#000000" stroke-miterlimit="1" x1="356.499" y1="302.132" x2="355.249" y2="304.694"/>
		<line fill="none" stroke="#000000" stroke-miterlimit="1" x1="357.499" y1="305.876" x2="356.249" y2="308.437"/>
		<line fill="none" stroke="#000000" stroke-miterlimit="1" x1="369.249" y1="293.661" x2="367.999" y2="296.222"/>
		<line fill="none" stroke="#000000" stroke-miterlimit="1" x1="371.249" y1="302.33" x2="369.999" y2="304.891"/>
	</g>
	<g>
		<ellipse fill="#8B8F9E" stroke="#000000" stroke-miterlimit="1" cx="376.333" cy="292.542" rx="13.6" ry="12.609"/>
		<line fill="none" stroke="#000000" stroke-miterlimit="1" x1="370.333" y1="286.04" x2="372.833" y2="287.813"/>
		<line fill="none" stroke="#000000" stroke-miterlimit="1" x1="370.083" y1="281.311" x2="372.583" y2="283.084"/>
		<line fill="none" stroke="#000000" stroke-miterlimit="1" x1="376.333" y1="285.646" x2="376.333" y2="283.084"/>
		<line fill="none" stroke="#000000" stroke-miterlimit="1" x1="376.333" y1="289.783" x2="378.583" y2="288.207"/>
		<line fill="none" stroke="#000000" stroke-miterlimit="1" x1="370.833" y1="290.768" x2="374.583" y2="291.753"/>
		<line fill="none" stroke="#000000" stroke-miterlimit="1" x1="366.833" y1="290.965" x2="368.083" y2="293.526"/>
		<line fill="none" stroke="#000000" stroke-miterlimit="1" x1="382.333" y1="293.33" x2="379.833" y2="295.103"/>
		<line fill="none" stroke="#000000" stroke-miterlimit="1" x1="388.833" y1="288.601" x2="386.333" y2="290.374"/>
		<line fill="none" stroke="#000000" stroke-miterlimit="1" x1="376.333" y1="292.936" x2="376.333" y2="290.374"/>
		<line fill="none" stroke="#000000" stroke-miterlimit="1" x1="368.583" y1="298.846" x2="368.583" y2="296.285"/>
		<line fill="none" stroke="#000000" stroke-miterlimit="1" x1="376.333" y1="297.073" x2="374.083" y2="295.497"/>
		<line fill="none" stroke="#000000" stroke-miterlimit="1" x1="373.083" y1="303.181" x2="370.833" y2="301.604"/>
		<line fill="none" stroke="#000000" stroke-miterlimit="1" x1="379.333" y1="303.771" x2="377.083" y2="302.195"/>
		<line fill="none" stroke="#000000" stroke-miterlimit="1" x1="381.833" y1="298.058" x2="378.083" y2="299.043"/>
		<line fill="none" stroke="#000000" stroke-miterlimit="1" x1="384.833" y1="289.783" x2="381.083" y2="290.768"/>
		<line fill="none" stroke="#000000" stroke-miterlimit="1" x1="367.583" y1="287.813" x2="363.833" y2="288.798"/>
		<line fill="none" stroke="#000000" stroke-miterlimit="1" x1="385.083" y1="282.887" x2="381.333" y2="283.873"/>
		<line fill="none" stroke="#000000" stroke-miterlimit="1" x1="385.833" y1="298.255" x2="384.583" y2="300.816"/>
		<line fill="none" stroke="#000000" stroke-miterlimit="1" x1="366.083" y1="295.497" x2="364.833" y2="298.058"/>
		<line fill="none" stroke="#000000" stroke-miterlimit="1" x1="371.833" y1="293.132" x2="370.583" y2="295.694"/>
		<line fill="none" stroke="#000000" stroke-miterlimit="1" x1="372.833" y1="296.876" x2="371.583" y2="299.437"/>
		<line fill="none" stroke="#000000" stroke-miterlimit="1" x1="384.583" y1="284.661" x2="383.333" y2="287.222"/>
		<line fill="none" stroke="#000000" stroke-miterlimit="1" x1="386.583" y1="293.33" x2="385.333" y2="295.891"/>
	</g>
	<g>
		<ellipse fill="#8B8F9E" stroke="#000000" stroke-miterlimit="1" cx="382.226" cy="304.144" rx="13.6" ry="12.609"/>
		<line fill="none" stroke="#000000" stroke-miterlimit="1" x1="376.226" y1="297.642" x2="378.726" y2="299.416"/>
		<line fill="none" stroke="#000000" stroke-miterlimit="1" x1="375.976" y1="292.914" x2="378.476" y2="294.687"/>
		<line fill="none" stroke="#000000" stroke-miterlimit="1" x1="382.226" y1="297.248" x2="382.226" y2="294.687"/>
		<line fill="none" stroke="#000000" stroke-miterlimit="1" x1="382.226" y1="301.386" x2="384.476" y2="299.81"/>
		<line fill="none" stroke="#000000" stroke-miterlimit="1" x1="376.726" y1="302.371" x2="380.476" y2="303.356"/>
		<line fill="none" stroke="#000000" stroke-miterlimit="1" x1="372.726" y1="302.568" x2="373.976" y2="305.129"/>
		<line fill="none" stroke="#000000" stroke-miterlimit="1" x1="388.226" y1="304.932" x2="385.726" y2="306.705"/>
		<line fill="none" stroke="#000000" stroke-miterlimit="1" x1="394.726" y1="300.204" x2="392.226" y2="301.977"/>
		<line fill="none" stroke="#000000" stroke-miterlimit="1" x1="382.226" y1="304.538" x2="382.226" y2="301.977"/>
		<line fill="none" stroke="#000000" stroke-miterlimit="1" x1="374.476" y1="310.449" x2="374.476" y2="307.887"/>
		<line fill="none" stroke="#000000" stroke-miterlimit="1" x1="382.226" y1="308.675" x2="379.976" y2="307.099"/>
		<line fill="none" stroke="#000000" stroke-miterlimit="1" x1="378.976" y1="314.783" x2="376.726" y2="313.207"/>
		<line fill="none" stroke="#000000" stroke-miterlimit="1" x1="385.226" y1="315.374" x2="382.976" y2="313.798"/>
		<line fill="none" stroke="#000000" stroke-miterlimit="1" x1="387.726" y1="309.661" x2="383.976" y2="310.646"/>
		<line fill="none" stroke="#000000" stroke-miterlimit="1" x1="390.726" y1="301.386" x2="386.976" y2="302.371"/>
		<line fill="none" stroke="#000000" stroke-miterlimit="1" x1="373.476" y1="299.416" x2="369.726" y2="300.4"/>
		<line fill="none" stroke="#000000" stroke-miterlimit="1" x1="390.976" y1="294.49" x2="387.226" y2="295.475"/>
		<line fill="none" stroke="#000000" stroke-miterlimit="1" x1="391.726" y1="309.857" x2="390.476" y2="312.419"/>
		<line fill="none" stroke="#000000" stroke-miterlimit="1" x1="371.976" y1="307.099" x2="370.726" y2="309.661"/>
		<line fill="none" stroke="#000000" stroke-miterlimit="1" x1="377.726" y1="304.735" x2="376.476" y2="307.296"/>
		<line fill="none" stroke="#000000" stroke-miterlimit="1" x1="378.726" y1="308.479" x2="377.476" y2="311.04"/>
		<line fill="none" stroke="#000000" stroke-miterlimit="1" x1="390.476" y1="296.263" x2="389.226" y2="298.824"/>
		<line fill="none" stroke="#000000" stroke-miterlimit="1" x1="392.476" y1="304.932" x2="391.226" y2="307.493"/>
	</g>
	<g>
		<ellipse fill="#8B8F9E" stroke="#000000" stroke-miterlimit="1" cx="367.226" cy="314.144" rx="13.6" ry="12.609"/>
		<line fill="none" stroke="#000000" stroke-miterlimit="1" x1="361.226" y1="307.642" x2="363.726" y2="309.416"/>
		<line fill="none" stroke="#000000" stroke-miterlimit="1" x1="360.976" y1="302.914" x2="363.476" y2="304.687"/>
		<line fill="none" stroke="#000000" stroke-miterlimit="1" x1="367.226" y1="307.248" x2="367.226" y2="304.687"/>
		<line fill="none" stroke="#000000" stroke-miterlimit="1" x1="367.226" y1="311.386" x2="369.476" y2="309.81"/>
		<line fill="none" stroke="#000000" stroke-miterlimit="1" x1="361.726" y1="312.371" x2="365.476" y2="313.356"/>
		<line fill="none" stroke="#000000" stroke-miterlimit="1" x1="357.726" y1="312.568" x2="358.976" y2="315.129"/>
		<line fill="none" stroke="#000000" stroke-miterlimit="1" x1="373.226" y1="314.932" x2="370.726" y2="316.705"/>
		<line fill="none" stroke="#000000" stroke-miterlimit="1" x1="379.726" y1="310.204" x2="377.226" y2="311.977"/>
		<line fill="none" stroke="#000000" stroke-miterlimit="1" x1="367.226" y1="314.538" x2="367.226" y2="311.977"/>
		<line fill="none" stroke="#000000" stroke-miterlimit="1" x1="359.476" y1="320.449" x2="359.476" y2="317.887"/>
		<line fill="none" stroke="#000000" stroke-miterlimit="1" x1="367.226" y1="318.675" x2="364.976" y2="317.099"/>
		<line fill="none" stroke="#000000" stroke-miterlimit="1" x1="363.976" y1="324.783" x2="361.726" y2="323.207"/>
		<line fill="none" stroke="#000000" stroke-miterlimit="1" x1="370.226" y1="325.374" x2="367.976" y2="323.798"/>
		<line fill="none" stroke="#000000" stroke-miterlimit="1" x1="372.726" y1="319.661" x2="368.976" y2="320.646"/>
		<line fill="none" stroke="#000000" stroke-miterlimit="1" x1="375.726" y1="311.386" x2="371.976" y2="312.371"/>
		<line fill="none" stroke="#000000" stroke-miterlimit="1" x1="358.476" y1="309.416" x2="354.726" y2="310.4"/>
		<line fill="none" stroke="#000000" stroke-miterlimit="1" x1="375.976" y1="304.49" x2="372.226" y2="305.475"/>
		<line fill="none" stroke="#000000" stroke-miterlimit="1" x1="376.726" y1="319.857" x2="375.476" y2="322.419"/>
		<line fill="none" stroke="#000000" stroke-miterlimit="1" x1="356.976" y1="317.099" x2="355.726" y2="319.661"/>
		<line fill="none" stroke="#000000" stroke-miterlimit="1" x1="362.726" y1="314.735" x2="361.476" y2="317.296"/>
		<line fill="none" stroke="#000000" stroke-miterlimit="1" x1="363.726" y1="318.479" x2="362.476" y2="321.04"/>
		<line fill="none" stroke="#000000" stroke-miterlimit="1" x1="375.476" y1="306.263" x2="374.226" y2="308.824"/>
		<line fill="none" stroke="#000000" stroke-miterlimit="1" x1="377.476" y1="314.932" x2="376.226" y2="317.493"/>
	</g>
	<g>
		<ellipse fill="#8B8F9E" stroke="#000000" stroke-miterlimit="1" cx="360.56" cy="289.811" rx="13.6" ry="12.609"/>
		<line fill="none" stroke="#000000" stroke-miterlimit="1" x1="354.56" y1="283.309" x2="357.06" y2="285.083"/>
		<line fill="none" stroke="#000000" stroke-miterlimit="1" x1="354.31" y1="278.581" x2="356.81" y2="280.354"/>
		<line fill="none" stroke="#000000" stroke-miterlimit="1" x1="360.56" y1="282.915" x2="360.56" y2="280.354"/>
		<line fill="none" stroke="#000000" stroke-miterlimit="1" x1="360.56" y1="287.053" x2="362.81" y2="285.477"/>
		<line fill="none" stroke="#000000" stroke-miterlimit="1" x1="355.06" y1="288.038" x2="358.81" y2="289.023"/>
		<line fill="none" stroke="#000000" stroke-miterlimit="1" x1="351.06" y1="288.235" x2="352.31" y2="290.796"/>
		<line fill="none" stroke="#000000" stroke-miterlimit="1" x1="366.56" y1="290.599" x2="364.06" y2="292.372"/>
		<line fill="none" stroke="#000000" stroke-miterlimit="1" x1="373.06" y1="285.871" x2="370.56" y2="287.644"/>
		<line fill="none" stroke="#000000" stroke-miterlimit="1" x1="360.56" y1="290.205" x2="360.56" y2="287.644"/>
		<line fill="none" stroke="#000000" stroke-miterlimit="1" x1="352.81" y1="296.116" x2="352.81" y2="293.554"/>
		<line fill="none" stroke="#000000" stroke-miterlimit="1" x1="360.56" y1="294.342" x2="358.31" y2="292.766"/>
		<line fill="none" stroke="#000000" stroke-miterlimit="1" x1="357.31" y1="300.45" x2="355.06" y2="298.874"/>
		<line fill="none" stroke="#000000" stroke-miterlimit="1" x1="363.56" y1="301.041" x2="361.31" y2="299.465"/>
		<line fill="none" stroke="#000000" stroke-miterlimit="1" x1="366.06" y1="295.328" x2="362.31" y2="296.312"/>
		<line fill="none" stroke="#000000" stroke-miterlimit="1" x1="369.06" y1="287.053" x2="365.31" y2="288.038"/>
		<line fill="none" stroke="#000000" stroke-miterlimit="1" x1="351.81" y1="285.083" x2="348.06" y2="286.067"/>
		<line fill="none" stroke="#000000" stroke-miterlimit="1" x1="369.31" y1="280.157" x2="365.56" y2="281.142"/>
		<line fill="none" stroke="#000000" stroke-miterlimit="1" x1="370.06" y1="295.524" x2="368.81" y2="298.086"/>
		<line fill="none" stroke="#000000" stroke-miterlimit="1" x1="350.31" y1="292.766" x2="349.06" y2="295.328"/>
		<line fill="none" stroke="#000000" stroke-miterlimit="1" x1="356.06" y1="290.402" x2="354.81" y2="292.963"/>
		<line fill="none" stroke="#000000" stroke-miterlimit="1" x1="357.06" y1="294.146" x2="355.81" y2="296.707"/>
		<line fill="none" stroke="#000000" stroke-miterlimit="1" x1="368.81" y1="281.93" x2="367.56" y2="284.491"/>
		<line fill="none" stroke="#000000" stroke-miterlimit="1" x1="370.81" y1="290.599" x2="369.56" y2="293.16"/>
	</g>
</g>
<path fill="#00AB4E" d="M339.26,274.794l11.256,20.021c5.407,1.078,11.295-0.376,16.721-1.602c2.391-0.43,4.779-0.884,7.162-1.362
	l0.908-14.363l4.781,13.165c6.812-1.506,13.558-3.274,20.168-5.444l1.014-12.708l5.001,10.599c1.429-0.532,2.853-1.08,4.267-1.657
	c3.576-1.468,7.602-3.126,11.626-5.067l0.102-6.712l2.413,5.46c7.191-3.709,14.078-8.4,18.053-14.638
	c-3.607-0.658-12.443-1.84-23.529-2.814l0.449,7.248l-3.594-7.513c-5.053-0.407-10.484-0.762-16.047-1l-0.302,9.4l-2.464-9.508
	c-6.225-0.221-12.552-0.285-18.639-0.106l-3.238,13.231l-4.964-12.824c-6.226,0.451-11.983,1.229-16.847,2.438l3.921,14.284
	l-10.188-12.258C340.413,263.952,336.949,268.335,339.26,274.794z"/>
<path fill="#00AB4E" d="M434.333,444.667c-0.342,0.491-0.847,0.976-1.281,1.335c-0.246-2.109,0.634-4.104,1.322-6.05
	c-3.964,1.492-8.348,3.584-12.038,5.689c0.761-3.101,2.304-6.037,2.987-9.21c-2.586,1.383-5.839,3.525-8.606,4.158
	c-0.555-3.23,1.3-6.519,0.921-9.866c-1.548,1.748-3.212,9.458-5.663,9.61c-3.598,0.226-4.505-7.975-4.294-10.47
	c2.159,4.083,4.725,10.85,4.542,15.324c-4.498-2.184-10.522-8.959-11.657-13.887c1.345,4.463,2.945,7.752,3.364,12.423
	c0.161,1.794,2.132,6.326,2.737,1.942"/>
<path fill="#00AB4E" d="M387.333,445.333c-0.242-5.13-6.289-10.602-9.386-15.065c0.175,4.442,0.177,8.955,0.023,13.398
	c-2.129-3.076-4.083-6.477-6.755-9.207c0.136,2.957,1.518,5.819,2.031,8.62c-1.524-4.001-7.444-7.971-11.63-8.457
	c0.215,3.396,3.438,5.841,5.796,8.003c-3.633-2.442-7.223-4.337-11.731-4.237c-0.52,1.286-0.354,2.777-0.376,4.091
	c-0.66-1.641-1.82-3.091-2.963-4.422c-0.025,1.695,0,3.412-0.017,5.116c-0.188-1.354,0.602-0.712,1.007-1.173"/>
<path fill="#00AB4E" d="M418,439.667c-0.316,0.569-0.707,1.108-1.066,1.651c0.668-1.982,1.018-4.192,0.638-6.254
	c-2.251,1.529-4.459,3.783-5.52,6.335c-0.363-2.465-0.78-4.79-0.722-7.305c-1.724,3.52-4.459,6.878-6.699,10.082
	c-1.549-2.438,0.139-6.295,0.041-9.205c-3.464,1.832-3.712,5.571-5.429,8.591c-0.962-2.944-0.687-5.947-1.044-8.931
	c-2.262,2.794-1.593,6.401-2.532,9.701"/>
<path fill="#00AB4E" d="M373.667,437c0.735-2.66-0.025-6.439-1.64-8.625c-0.316,3.081,0.283,6.393,1.889,9.006
	c0.868-3.487,2.87-5.986,5.073-8.65c0.092,3.522-0.993,8.429,0.641,11.49c1.997-3.255,3.371-7.333,5.936-10.229
	c0.354,3.347-1.162,8.666,1.453,11.341c1.906-2.382,1.439-6.226,3.534-8.799c0.084,2.46-0.114,6.613,1.705,8.396
	c0.592-1.073,0.963-2.333,1.075-3.598"/>
<path fill="#00AB4E" d="M423.667,459c-1.063-2.748-3.215-5.529-4.682-8.07c-3.7-6.411-9.886-15.588-16.237-19.707
	c-0.693,4.173,0.025,8.708-0.109,12.941c-1.808-4.554-3.233-9.27-5.772-13.495c-1.054,5.846,1.276,12.512,2.507,18.204
	c0.428-5.804-3.909-12.885-7.786-16.854c0.168,5.903,1.034,11.609,2.454,17.338c-0.268-3.055-2.871-5.922-5.05-7.918
	c-0.314,4.294,0.666,8.815,2.373,12.701c-1.671-4.021-6.428-5.634-8.423-9.225c0.081,1.769,0.49,4.177,0.059,5.897
	c-0.358,1.428,0.489,0.963-0.333,0.521"/>
<path fill="#00AB4E" d="M369.667,455c1.867-3.829-6.438-14.86-8.395-18.695c0.172,4.447,0.404,8.863,0.394,13.316
	c0.094-2.835,0.292-6.527-2.048-8.322c-0.672,3.736-0.303,7.724-0.273,11.522c0.373-4.986-3.033-10.742-6.657-13.942
	c-2.49,3.141-1.473,8.251-2.955,12.038c-0.798-3.263-1.162-6.538-2.939-9.479c-0.771,3.379-0.466,6.974-0.46,10.426
	c0-0.288,0-0.576,0-0.864"/>
<path fill="#00AB4E" d="M376.667,457.667c0.749-5.687-0.358-11.603,1.733-17.087c1.543,0.96,1.579,4.363,1.891,5.956
	c0.887,4.534,1.65,9.121,3.09,13.523c2.252-3.352,1.235-11.054,1.344-15.295c0.928,4.133,0.07,9.616,2.267,13.281
	c2.783-4.47,2.86-10.333,5.64-15.108c0.175,5.793,0.166,11.566,2.123,17.087c0.541-0.876,0.539-1.665,0.579-2.691"/>
<path fill="#00AB4E" d="M435.667,456.333c0.518-5.878-5.751-13.311-8.638-18.072c-0.144,3.614-0.152,7.319,0.012,10.936
	c-1.003-3.711-1.058-7.998-2.635-11.496c-0.617,4.748-2.061,9.731-1.708,14.532c-0.337-4.811-2.226-12.317-5.927-15.596
	c-2.402,0.941-5.643,6.719-6.104,7.03"/>
<ellipse transform="matrix(0.8489 0.5286 -0.5286 0.8489 240.3459 -147.8479)" fill="#B30838" cx="378.743" cy="346.416" rx="7.084" ry="9.585"/>
<ellipse transform="matrix(0.8489 0.5286 -0.5286 0.8489 240.3081 -147.7157)" fill="none" stroke="#000000" stroke-width="1.0993" cx="378.493" cy="346.416" rx="7.084" ry="9.585"/>
<g>
	<path fill="#FFFFFF" d="M376.307,344.717c-0.583,1.604-1.709,2.909-2.511,2.915c-0.803,0.006-0.98-1.291-0.397-2.895
		c0.585-1.605,1.71-2.91,2.513-2.916C376.713,341.816,376.892,343.113,376.307,344.717z"/>
	<path fill="#FFFFFF" d="M376.294,344.717c-0.578,1.59-1.693,2.884-2.488,2.889c-0.796,0.007-0.974-1.279-0.394-2.869
		c0.579-1.589,1.694-2.885,2.489-2.889C376.697,341.842,376.873,343.126,376.294,344.717z"/>
	<path fill="#FFFFFF" d="M376.282,344.716c-0.573,1.577-1.68,2.859-2.468,2.865c-0.789,0.005-0.964-1.267-0.39-2.844
		c0.573-1.576,1.679-2.858,2.468-2.864C376.682,341.868,376.855,343.142,376.282,344.716z"/>
	<path fill="#FFFFFF" d="M376.27,344.717c-0.568,1.561-1.664,2.833-2.445,2.838c-0.781,0.005-0.955-1.257-0.386-2.819
		c0.567-1.562,1.663-2.832,2.445-2.837C376.665,341.895,376.837,343.155,376.27,344.717z"/>
	<path fill="#FFFFFF" d="M376.256,344.717c-0.563,1.547-1.648,2.807-2.422,2.812c-0.775,0.006-0.946-1.245-0.383-2.793
		c0.563-1.546,1.647-2.805,2.423-2.812C376.648,341.92,376.819,343.169,376.256,344.717z"/>
	<path fill="#FFFFFF" d="M376.244,344.717c-0.559,1.534-1.634,2.781-2.403,2.787c-0.767,0.006-0.936-1.233-0.377-2.768
		c0.558-1.532,1.633-2.781,2.4-2.785C376.631,341.946,376.801,343.184,376.244,344.717z"/>
	<path fill="#FFFFFF" d="M376.231,344.718c-0.554,1.52-1.619,2.755-2.379,2.76c-0.761,0.006-0.93-1.222-0.376-2.742
		c0.554-1.519,1.618-2.754,2.379-2.76C376.614,341.972,376.782,343.2,376.231,344.718z"/>
	<path fill="#FFFFFF" d="M376.217,344.718c-0.547,1.505-1.603,2.729-2.354,2.734c-0.753,0.005-0.921-1.211-0.372-2.716
		c0.547-1.505,1.603-2.729,2.355-2.734C376.599,341.997,376.766,343.213,376.217,344.718z"/>
	<path fill="#FFFFFF" d="M376.204,344.717c-0.542,1.491-1.587,2.704-2.334,2.709c-0.745,0.004-0.91-1.199-0.367-2.691
		c0.542-1.49,1.587-2.703,2.332-2.708C376.583,342.022,376.746,343.227,376.204,344.717z"/>
	<path fill="#FFFFFF" d="M376.19,344.718c-0.537,1.477-1.571,2.677-2.31,2.683c-0.738,0.005-0.903-1.188-0.364-2.665
		c0.535-1.476,1.571-2.677,2.31-2.683C376.565,342.049,376.729,343.242,376.19,344.718z"/>
	<path fill="#FFFFFF" d="M376.179,344.718c-0.533,1.461-1.557,2.652-2.29,2.657c-0.73,0.003-0.893-1.178-0.36-2.638
		c0.531-1.464,1.557-2.654,2.288-2.658C376.549,342.074,376.711,343.256,376.179,344.718z"/>
	<path fill="#FFFFFF" d="M376.165,344.718c-0.527,1.449-1.541,2.626-2.266,2.631s-0.885-1.165-0.358-2.613
		c0.527-1.447,1.543-2.626,2.267-2.631C376.533,342.1,376.694,343.27,376.165,344.718z"/>
	<path fill="#FFFFFF" d="M376.154,344.718c-0.522,1.434-1.528,2.6-2.246,2.606c-0.717,0.005-0.876-1.154-0.354-2.588
		c0.523-1.434,1.526-2.602,2.245-2.606C376.517,342.125,376.674,343.284,376.154,344.718z"/>
	<path fill="#FFFFFF" d="M376.141,344.718c-0.517,1.42-1.512,2.576-2.223,2.58c-0.711,0.005-0.867-1.142-0.352-2.562
		c0.518-1.418,1.512-2.573,2.223-2.578S376.656,343.298,376.141,344.718z"/>
	<path fill="#FFFFFF" d="M376.128,344.719c-0.513,1.405-1.497,2.547-2.201,2.553c-0.703,0.005-0.858-1.13-0.348-2.536
		c0.512-1.406,1.498-2.549,2.2-2.554C376.482,342.178,376.64,343.313,376.128,344.719z"/>
	<path fill="#FFFFFF" d="M376.114,344.718c-0.506,1.391-1.481,2.523-2.178,2.527c-0.697,0.005-0.85-1.119-0.344-2.51
		s1.48-2.523,2.176-2.528C376.468,342.203,376.62,343.327,376.114,344.718z"/>
	<path fill="#FFFFFF" d="M376.103,344.718c-0.503,1.378-1.469,2.498-2.156,2.502c-0.69,0.006-0.842-1.106-0.341-2.484
		c0.502-1.376,1.466-2.498,2.156-2.502C376.451,342.229,376.604,343.342,376.103,344.718z"/>
	<path fill="#FFFFFF" d="M376.089,344.719c-0.496,1.363-1.452,2.471-2.134,2.476c-0.681,0.003-0.833-1.097-0.337-2.459
		c0.496-1.363,1.451-2.471,2.134-2.476C376.434,342.254,376.585,343.355,376.089,344.719z"/>
	<path fill="#FFFFFF" d="M376.075,344.719c-0.491,1.349-1.436,2.446-2.11,2.45c-0.676,0.004-0.823-1.085-0.332-2.434
		c0.489-1.348,1.434-2.445,2.108-2.45C376.417,342.281,376.567,343.37,376.075,344.719z"/>
	<path fill="#FFFFFF" d="M376.062,344.718c-0.485,1.335-1.422,2.421-2.089,2.426c-0.667,0.004-0.815-1.075-0.329-2.409
		c0.484-1.334,1.421-2.419,2.089-2.424C376.399,342.306,376.549,343.384,376.062,344.718z"/>
</g>
<rect x="451" y="404" fill="none" width="3" height="0"/>
<g>
	<path d="M349.624,399.412h-0.781v1.906h-0.586v-1.906h-0.766v-0.492h2.133V399.412z M352.835,401.318h-0.578v-1.212
		c0-0.063,0-0.228,0-0.492c-0.04,0.12-0.1,0.288-0.179,0.504l-0.478,1.2h-0.395l-0.478-1.2c-0.056-0.151-0.111-0.319-0.167-0.504
		v1.704h-0.578v-2.398h0.866l0.59,1.559l0.565-1.559h0.83V401.318z"/>
</g>
</svg>