<?xml version="1.0" encoding="utf-8"?>
<!-- Generator: Adobe Illustrator 16.0.4, SVG Export Plug-In . SVG Version: 6.00 Build 0)  -->
<!DOCTYPE svg PUBLIC "-//W3C//DTD SVG 1.1//EN" "http://www.w3.org/Graphics/SVG/1.1/DTD/svg11.dtd">
<svg version="1.1" id="Layer_1" xmlns="http://www.w3.org/2000/svg" xmlns:xlink="http://www.w3.org/1999/xlink" x="0px" y="0px"
	 width="612px" height="793px" viewBox="0 0 612 793" enable-background="new 0 0 612 793" xml:space="preserve">
<g>
	<defs>
		<rect id="SVGID_1_" x="181.5" y="186" width="249" height="422"/>
	</defs>
	<clipPath id="SVGID_2_">
		<use xlink:href="#SVGID_1_"  overflow="visible"/>
	</clipPath>
	<path clip-path="url(#SVGID_2_)" fill-rule="evenodd" clip-rule="evenodd" d="M238.84,237.41c8.42,17.64,2.73,140.83-7.13,184.1
		c-9.87,43.27-19.73,98.28-22.03,144.58c-1.01,19.73,2.01,27.5,14.9,27.5c22.75,0,51.62-47.95,87.91-46.87
		c36.29,1.08,47.81,55.01,64.8,54.65c16.99-0.36,30.67-6.27,30.82-58.75C408.61,385.87,277.21,258.86,238.84,237.41L238.84,237.41z"
		/>
	
		<path clip-path="url(#SVGID_2_)" fill-rule="evenodd" clip-rule="evenodd" stroke="#000000" stroke-width="0.22" stroke-miterlimit="11.4737" d="
		M352.81,362.62c7.99,13.46,28.37,3.09,29.23-12.1c0.87-15.19-1.36-34.34-11.23-35.06c-9.86-0.72-16.92-10.59-26.78-11.31
		c-9.87-0.72-20.45,9.15-25.06-3.96c-4.61-13.1,12.39-18.65,25.06-20.73c-11.31-11.31-17.93-23.84-22.9-36.87
		c-4.97-13.03-8.64-24.979,5.26-30.09c13.89-5.12,12.74,21.16,28.65,33.19c-4.68-17.71-6.4-25.06-6.04-35.35
		c0.36-10.3-0.36-18.15,14.25-16.13c14.62,2.01,8.28,32.4,19.66,44.78c3.45-11.73,5.54-26.64,13.89-32.76
		c8.36-6.12,27.36-6.26,15.27,18.87c-12.1,25.12,3.53,38.73-0.15,58.53c-3.67,19.8-15.04,16.2-19.94,28.95
		c-4.9,12.74,2.88,41.76-6.34,54.79c-9.21,13.03-10.87,33.12-4.89,49.1C362.39,399.34,352.81,362.62,352.81,362.62L352.81,362.62z"
		/>
	<path clip-path="url(#SVGID_2_)" fill-rule="evenodd" clip-rule="evenodd" d="M238.33,379.54c-7.41,50.9-33.19,56.95-34.49,78.04
		c-1.29,21.1,6.84,23.12,6.34,42.63c-0.5,19.51-17.86,27.43-19.94,38.01c-2.09,10.59,8.92,13.97,15.33,13.97
		c6.41,0,12.82-28.08,15.41-45.93c2.59-17.86-8.5-28.37-8.5-40.61c0-12.24,16.06-34.63,13.11-14.98
		C238.91,429.65,245.24,402.86,238.33,379.54L238.33,379.54z"/>
	<path clip-path="url(#SVGID_2_)" fill-rule="evenodd" clip-rule="evenodd" fill="#FFFFFF" d="M248.27,398.98
		c-5.62,27.5-40.68,181.08-22.83,183.02c17.86,1.94,43.28-47.52,84.96-47.16c41.69,0.36,58.11,55.44,68.26,55.08
		c10.15-0.36,16.85,3.6,17.93-58.46c1.08-62.07-36.79-141.41-59.19-176.33C307.02,357.07,274.26,381.41,248.27,398.98L248.27,398.98
		z"/>
	<g clip-path="url(#SVGID_2_)">
		<defs>
			<path id="SVGID_3_" d="M283.04,408.91c21.53,0.65,43.49-15.48,44.14-38.95c0.65-23.47-19.01-32.54-36-31.54
				c-16.99,1.01-41.47,15.63-41.98,34.49C248.7,391.78,261.52,408.26,283.04,408.91L283.04,408.91z"/>
		</defs>
		<clipPath id="SVGID_4_">
			<use xlink:href="#SVGID_3_"  overflow="visible"/>
		</clipPath>
	</g>
	<path clip-path="url(#SVGID_2_)" fill="#910028" stroke="#000000" stroke-width="7.99" stroke-miterlimit="11.4737" d="
		M283.04,408.91c21.53,0.65,43.49-15.48,44.14-38.95c0.65-23.47-19.01-32.54-36-31.54c-16.99,1.01-41.47,15.63-41.98,34.49
		C248.7,391.78,261.52,408.26,283.04,408.91L283.04,408.91z"/>
	<path clip-path="url(#SVGID_2_)" fill-rule="evenodd" clip-rule="evenodd" fill="#FFFFFF" d="M271.38,355.62
		c6.18-4.46,12.96-5.601,14.96-2.88c2.021,2.88-1.28,8.8-7.34,13.26c-6.04,4.46-12.66,5.76-14.82,2.88
		C262.16,366.14,265.32,360.1,271.38,355.62L271.38,355.62z"/>
</g>
</svg>