<?xml version="1.0" encoding="utf-8"?>
<svg viewBox="11.3388 12.494 391.5227 234.355" xmlns="http://www.w3.org/2000/svg">
  <g id="Layer_1" transform="matrix(1, 0, 0, 1, -93.1821517944336, -286.8462219238281)">
    <path fill-rule="evenodd" clip-rule="evenodd" d="M494.221,325.166c-0.932-1.497-2.169-1.64-3.538-2.423 c-0.739-0.471,1.761-1.729,1.88-3.92c0.506-9.048-7.626-10.775-14.944-11.892c-0.174-1.337,0.247-2.377-0.378-3.341 c-4.562-7.46-16.065-3.072-22-1.903c-0.215,0.079-0.844,0.25-1.227,0.426c-4.112,1.536-15.518,5.912-17.018,9.359 c-0.85,0.787-2.812,2.916-5.688,3.179c-0.424-2.117-0.393-4.813-1.159-5.787c-5.517-6.171-20.302-4.528-23.86,2.902 c-0.404,7.217,8.24,4.205,13.071,6.241c0.172,0.033,0.297,0.041,0.474,0.228c0.191,0.225,0.265,0.307,0.224,0.553 c-1.411,3.771-8.26,16.313-2.201,19.76c-0.09,0.348-0.18,0.696-0.272,1.079c-0.759,0.312-1.519,0.622-2.244,0.97 c-5.948,5.317-3.036,6.293,0.454,11.433c-1.19,8.021-1.19,8.021-3.19,17.869c-4.467,12.923-9.189,23.465-15.587,35.538 c-9.199,13.542-17.882,24.78-29.764,36.405c-3.04,1.313-4.378,1.874-7.178,0.163c0.054-0.966,0.177-2.529,0.3-4.063 c1.31-4.47,1.564-9.13,0.541-13.72c-1.613-7.24-6.254-13.555-13.064-17.78c-6.161-3.82-13.663-5.756-21.537-5.687 c-7.236-5.345-19.383-14.299-21.943-15.976c-3.037-1.989-28.085-15.939-32.092-17.231c-5.773-1.861-14.073-5.38-20.305-4.457 c3.213,5.235,11.107,30.175,11.615,38.546c0.973,16.021-0.425,30.914-6.083,46.172c-0.781,0.698-0.781,0.698-3.952,1.827 c-1.125,1.325-11.021,5.467-14.87,6.336c-3.13,1.05-14.424,2.152-15.472,1.323c-6.978-3.428-11.333-9.534-17.6-13.664l-2.489-1.587 c-0.113-1.137-0.113-1.137-0.791-2.27c0.32-5.704,1.543-7.365-3.284-10.108c0.017-5.968-3.812-13.512-7.991-18.106 c-4.18-4.594-12.034-8.971-14.913-12.455c-2.879-3.483-4.012-4.71-6.358-4.382c-1.818,0.484-2.793,2.876-3.417,4.242 c-0.264,0.578-0.743,1.722-0.236,3.069c0.714,1.899,1.329,2.996,1.329,2.996l0.855,1c4.528,2.716,8.223,4.712,8.99,5.113 c2.136,1.115,7.592,5.014,8.825,6.392c2.543,2.845,5.041,6.463-1.019,11.88c-1.831-0.103-1.831-0.103-5.793-1.242 c0.053-9.78-4.459-9.291-12.344-9.133c0.656-2.895,0.908-4.779-0.017-6.641c-3.139-2.424-13.529-0.581-13.529-0.581 s-1.549,0.335-2.346,0.449c-0.797,0.113-1.287,0.37-2.464,1.063c-1.178,0.693-1.714,1.967-1.714,1.967 c-1.183,7.213-0.494,9.963,5.325,11.004c-0.053,9.145,3.69,10.413,12.107,13.357c0.531,0.595,0.801,2.093,2.177,4.007 c5.438,2.529,8.691,1.829,14.793,1.358c2.45-0.242,5.463-0.258,8.828-0.601c2.902,0.516,2.902,0.516,8.062,0.451 c1.816,0.918,13.418,9.507,13.341,10.884c15.061,9.179,21.553,4.244,38.973-0.961c2.183,0.122,2.183,0.122,2.715,0.718 c-0.194,0.942-0.39,1.92-0.551,2.9c-9.602,16.944-19.564,37.578-20.898,52.158c-0.631,6.898,0.618,21.983,9.845,22.495 c14.09,0.78,36.942-28.43,68.676-26.793c31.733,1.636,36.941,26.53,52.958,27.41c11.753,0.646,13.262-26.682,12.976-32.68 c-0.86-17.98-6.405-32.971-12.248-49.954c-0.504-4.866,2.409-7.069,6.049-9.62c5.604-6.75,13.036-12.69,19.05-19.17 c6.921-8.795,14.147-18.031,19.908-27.562c3.596-7.428,6.122-15.974,10.117-22.99c3.496-10.081,4.299-11.167,6.934-19.106 c1.187-0.393,2.372-0.75,3.558-1.107c6.061-5.417,1.04-5.946,11.021-6.34c9.675-1.86,18.051-6.371,26.683-11.043 c5.835-0.132,11.495-0.31,17.14,1.701C493.103,336.298,499.276,333.286,494.221,325.166z"/>
    <path fill-rule="evenodd" clip-rule="evenodd" fill="#ED1C24" d="M356.036,425.309c3.273,14.681-9.186,30.296-27.827,34.878 c-18.643,4.582-36.408-3.604-39.681-18.285c-3.272-14.681,9.187-30.296,27.828-34.878S352.764,410.628,356.036,425.309z"/>
    <path fill-rule="evenodd" clip-rule="evenodd" fill="#FFFFFF" d="M364.6,466.521c-0.297-1.038-4.16-11.701-4.618-12.761 c-0.873-2.022-2.492-4.101-3.332-6.085c-0.599,0.628-1.504,1.502-2.878,2.466c-5.716,6.927-14.23,12.409-24.369,14.901 c-11.743,2.886-23.658,1.329-32.688-4.273c-5.28-3.274-9.247-7.808-11.52-13.052c-1.013-1.416-1.725-3.036-2.051-4.901 c-4.54,0.982-10.579,2.111-14.772,3.56c-1.122,0.389-3.135,1.513-4.645,1.993c-0.42,3.084-1.522,4.471-3.156,7.169 c-1.706,3.966-6.642,13.261-7.385,13.926c-10.386,17.076-20.931,39.061-15.011,54.89c0.44,1.179,0.552,1.295,0.773,1.57 c0.222,0.276,1.12,1.368,1.877,1.749s0.765,0.326,1.134,0.437c0.242,0.072,1.965,0.386,3.489-0.029 c3.6-0.98,11.174-8.015,14.924-10.359c4.79-2.995,13.814-8.368,17.779-10.427c3.612-1.876,5.14-2.778,10.422-4.381 c17.054-5.172,39.609-5.049,53.363,7.58c1.814,1.667,4.68,4.306,5.882,5.622c2.917,3.194,6.646,8.629,10.688,10.033 c4.365,1.517,6.015,1.714,9.106-2.421C373.975,505.329,369.68,484.309,364.6,466.521z"/>
  </g>
  <g id="Layer_3" transform="matrix(1, 0, 0, 1, -93.1821517944336, -286.8462219238281)">
    <g>
      <path fill-rule="evenodd" clip-rule="evenodd" fill="none" stroke="#000000" d="M136.384,354.525 c-4.532-4.34-14.864-0.906-23.079,7.669c-8.214,8.576-11.199,19.047-6.668,23.387"/>
      <ellipse transform="matrix(-0.6917 0.7222 -0.7222 -0.6917 476.7127 539.7516)" fill-rule="evenodd" clip-rule="evenodd" fill="none" stroke="#000000" cx="123.151" cy="371.626" rx="17.202" ry="9.089"/>
      <ellipse transform="matrix(-0.6917 0.7222 -0.7222 -0.6917 479.8449 540.922)" fill-rule="evenodd" clip-rule="evenodd" fill="none" stroke="#000000" cx="124.464" cy="372.883" rx="13.761" ry="7.272"/>
      <line fill-rule="evenodd" clip-rule="evenodd" fill="none" stroke="#000000" x1="186.55" y1="447.238" x2="106.637" y2="385.582"/>
      <path fill-rule="evenodd" clip-rule="evenodd" fill="#FFFFFF" stroke="#000000" d="M136.875,367.321 c2.24-5.322,2.244-10.176-0.491-12.796l-0.971-0.736l66.01,77.919c2.265,2.17,0.772,7.406-3.334,11.693 c-4.107,4.289-9.274,6.006-11.539,3.836L136.875,367.321z"/>
      <path fill-rule="evenodd" clip-rule="evenodd" fill="#FFFFFF" stroke="#000000" d="M106.637,385.582 c3.249,3.793,12.27,2.427,20.149-3.051c7.879-5.479,11.633-12.996,8.384-16.79l66.509,72.624c1.542,1.951-0.597,5.518-4.774,7.969 c-4.178,2.449-8.814,2.855-10.354,0.904L106.637,385.582z"/>
    </g>
  </g>
  <g id="Layer_4" transform="matrix(1, 0, 0, 1, -93.1821517944336, -286.8462219238281)">
    <ellipse transform="matrix(0.9799 -0.1995 0.1995 0.9799 -77.6062 72.2793)" fill-rule="evenodd" clip-rule="evenodd" fill="#FFFFFF" cx="319.831" cy="421.205" rx="15.413" ry="10.002"/>
  </g>
  <g id="Layer_2" transform="matrix(1, 0, 0, 1, -93.1821517944336, -286.8462219238281)">
    <path fill-rule="evenodd" clip-rule="evenodd" d="M181.307,445.023c-6.102,0.471-9.354,1.171-14.793-1.358 c-1.375-1.914-1.646-3.412-2.177-4.007c-8.417-2.944-12.161-4.213-12.107-13.357c-5.818-1.041-6.508-3.791-5.325-11.004 c0,0,0.536-1.273,1.714-1.967c1.178-0.693,1.667-0.95,2.464-1.063c0.797-0.114,2.346-0.449,2.346-0.449s10.391-1.843,13.529,0.581 c0.925,1.861,0.673,3.746,0.017,6.641c7.884-0.158,12.397-0.647,12.344,9.133c0,0-3.208,4.896-3.8,5.687s-0.593,0.79,0.296,2.667 s7.113,8.101,7.113,8.101L181.307,445.023z"/>
    <path fill-rule="evenodd" clip-rule="evenodd" d="M198.872,427.828c-0.703-5.569-4.097-12.183-7.815-16.27 c-4.18-4.594-12.034-8.971-14.913-12.455c-2.879-3.483-4.012-4.71-6.358-4.382c-1.129,0.301-2.459,2.527-3.185,4.495l11.129,12.158 c2.358,1.346,7.414,2.987,9.029,3.626c0.983,0.389,3.565,2.454,4.062,3.278L198.872,427.828z"/>
  </g>
</svg>