<?xml version="1.0" encoding="utf-8"?>
<svg viewBox="305 0 149.073 158.131" xmlns="http://www.w3.org/2000/svg">
  <radialGradient id="SVGID_1_" cx="320" cy="388.0005" r="35.7701" gradientUnits="userSpaceOnUse" gradientTransform="matrix(1, 0, 0, 1, 73.853701, -319.005924)">
    <stop offset="0" style="stop-color:#FCCAB7"/>
    <stop offset="0.1716" style="stop-color:#F89B8F"/>
    <stop offset="0.3633" style="stop-color:#F46E69"/>
    <stop offset="0.5476" style="stop-color:#F14A4B"/>
    <stop offset="0.7199" style="stop-color:#EF3136"/>
    <stop offset="0.8756" style="stop-color:#ED2129"/>
    <stop offset="1" style="stop-color:#ED1C24"/>
  </radialGradient>
  <path fill-rule="evenodd" clip-rule="evenodd" fill="#FFFFFF" d="M 356.166 141.433 C 361.134 140.641 372.51 132.793 375.534 131.425 C 378.558 130.129 390.51 125.09 394.182 125.09 C 397.854 125.09 407.862 129.77 410.238 133.442 C 412.543 137.114 414.558 144.097 419.598 143.81 C 424.566 143.45 429.246 128.114 429.246 124.081 C 429.246 120.05 427.302 107.737 425.285 105.361 C 423.269 103.057 401.237 72.025 387.485 72.385 C 373.877 72.673 357.173 83.329 354.797 92.977 C 352.493 102.697 350.477 116.376 350.477 122.713 C 350.478 129.122 354.15 141.794 356.166 141.433 Z" transform="matrix(1, 0, 0, 1, 0, 2.842170943040401e-14)"/>
  <path fill-rule="evenodd" clip-rule="evenodd" fill="url(#SVGID_1_)" d="M 379.206 95.641 C 383.526 102.121 400.877 105.721 411.247 100.034 C 421.614 94.346 430.614 76.346 424.278 67.346 C 417.942 58.346 395.549 53.666 386.19 62.666 C 376.902 71.666 372.87 86.282 379.206 95.641 Z" transform="matrix(1, 0, 0, 1, 0, 2.842170943040401e-14)"/>
  <path fill-rule="evenodd" clip-rule="evenodd" d="M 394.757 83.259 C 393.173 84.555 382.949 88.947 387.126 92.69 C 392.094 97.155 399.653 94.851 404.045 91.323 C 405.774 91.323 406.206 92.619 406.35 93.555 C 402.535 95.571 400.446 99.458 401.094 101.979 C 403.686 111.051 410.742 115.083 420.39 115.083 C 422.982 115.083 426.582 113.427 427.159 111.987 C 428.887 112.275 432.486 111.411 433.566 109.251 C 436.878 110.115 447.247 113.355 447.965 110.331 C 448.542 108.243 444.15 104.859 442.422 103.491 C 440.693 102.195 430.686 95.283 427.806 93.627 C 427.446 93.339 427.373 94.707 427.589 95.283 C 428.742 96.22 439.83 104.211 441.197 105.434 C 445.229 108.962 436.877 107.451 433.997 106.659 C 434.069 105.147 431.766 102.555 429.101 103.203 C 427.949 97.947 420.46 92.547 429.46 90.676 C 436.444 88.444 430.9 82.323 426.94 82.396 C 424.492 82.396 419.956 81.892 417.724 85.564 C 416.86 86.931 413.404 84.196 413.404 83.26 C 412.972 83.26 409.444 79.3 409.3 79.227 C 406.564 77.788 403.252 76.132 400.156 78.58 C 398.142 80.234 396.774 81.675 394.757 83.259 Z" transform="matrix(1, 0, 0, 1, 0, 2.842170943040401e-14)"/>
  <path fill-rule="evenodd" clip-rule="evenodd" d="M 350.622 120.194 C 351.702 119.834 355.374 119.33 356.886 118.826 C 359.406 117.962 360.774 113.498 361.782 110.114 C 362.79 106.729 363.078 101.185 361.782 98.305 C 360.774 96.146 349.686 94.921 342.918 97.658 C 341.766 96.219 339.102 95.929 336.294 97.299 C 332.982 96.578 329.31 95.21 329.166 94.49 C 328.878 92.618 337.59 90.89 341.478 90.458 C 345.438 89.954 354.294 88.442 353.934 94.49 C 354.438 94.49 355.086 94.634 355.518 94.634 C 355.518 87.651 370.494 84.555 374.886 83.114 C 374.166 86.57 374.742 92.259 376.542 95.354 C 377.694 97.513 383.094 105.793 399.726 104.641 C 400.446 103.778 399.15 102.554 399.293 100.826 C 395.478 100.826 377.837 100.754 378.341 85.347 C 378.917 69.219 390.149 59.715 403.83 59.786 C 418.662 59.858 424.997 65.474 424.206 79.946 C 424.133 82.178 425.934 80.954 427.949 80.954 C 432.053 68.066 425.645 56.978 406.781 56.33 C 399.149 42.002 373.805 15.434 358.397 9.746 C 370.349 29.186 364.661 65.834 356.813 83.402 C 355.733 85.85 343.781 87.794 339.533 88.37 C 335.357 88.946 323.621 91.61 323.621 94.202 C 323.621 96.578 333.917 101.042 334.997 101.474 C 335.069 105.65 336.149 105.146 339.749 105.146 C 339.965 106.585 346.589 111.265 346.589 112.633 C 346.805 112.633 346.733 113.57 345.437 113.641 C 344.141 114.362 341.765 117.314 343.133 120.482 C 343.926 122.21 345.942 121.706 350.622 120.194 Z" transform="matrix(1, 0, 0, 1, 0, 2.842170943040401e-14)"/>
  <path fill-rule="evenodd" clip-rule="evenodd" d="M 349.47 122.138 C 348.534 130.851 349.902 142.514 357.102 143.018 C 363.51 143.522 367.038 139.418 374.166 134.378 C 376.758 132.65 384.678 127.899 392.022 127.395 C 394.327 127.25 399.15 127.467 401.31 128.619 C 406.422 131.211 411.965 140.859 413.622 143.018 C 415.35 145.25 417.222 146.69 421.542 146.619 C 425.789 146.547 428.957 137.475 429.678 135.243 C 431.478 129.627 431.478 118.539 429.39 114.867 C 429.03 114.22 427.95 112.851 427.518 114.579 C 426.942 116.811 428.743 122.642 427.446 129.915 C 426.798 133.371 422.406 147.052 417.583 140.427 C 413.263 134.451 411.895 129.196 402.895 124.731 C 397.567 122.068 390.943 122.284 385.255 124.3 C 379.926 126.243 368.767 133.371 366.391 135.171 C 364.015 136.9 358.111 141.22 356.095 139.06 C 353.143 135.892 352.279 127.612 352.279 123.58 C 352.278 120.338 349.542 121.418 349.47 122.138 Z" transform="matrix(1, 0, 0, 1, 0, 2.842170943040401e-14)"/>
  <path fill-rule="evenodd" clip-rule="evenodd" fill="#231F20" d="M 335.862 15.434 C 338.958 15.434 341.55 16.658 341.55 18.242 C 341.55 19.754 338.958 21.05 335.862 21.05 C 332.694 21.05 330.174 19.754 330.174 18.242 C 330.174 16.658 332.694 15.434 335.862 15.434 Z" transform="matrix(1, 0, 0, 1, 0, 2.842170943040401e-14)"/>
  <path fill-rule="evenodd" clip-rule="evenodd" fill="#231F20" d="M 318.582 6.938 C 322.47 6.938 325.638 8.522 325.638 10.394 C 325.638 12.266 322.47 13.85 318.582 13.85 C 314.766 13.85 311.598 12.266 311.598 10.394 C 311.598 8.522 314.766 6.938 318.582 6.938 Z" transform="matrix(1, 0, 0, 1, 0, 2.842170943040401e-14)"/>
  <path fill-rule="evenodd" clip-rule="evenodd" fill="#231F20" d="M 346.23 25.586 C 347.814 25.586 349.038 26.306 349.038 27.242 C 349.038 28.106 347.814 28.898 346.23 28.898 C 344.718 28.898 343.494 28.106 343.494 27.242 C 343.494 26.306 344.718 25.586 346.23 25.586 Z" transform="matrix(1, 0, 0, 1, 0, 2.842170943040401e-14)"/>
</svg>